<?xml version="1.0" encoding="utf-8"?>
<!-- Generator: Adobe Illustrator 16.0.0, SVG Export Plug-In . SVG Version: 6.00 Build 0)  -->
<!DOCTYPE svg PUBLIC "-//W3C//DTD SVG 1.1//EN" "http://www.w3.org/Graphics/SVG/1.1/DTD/svg11.dtd">
<svg version="1.1" id="Layer_1" xmlns="http://www.w3.org/2000/svg" xmlns:xlink="http://www.w3.org/1999/xlink" x="0px" y="0px"
	 width="252px" height="72px" viewBox="0 0 252 72" enable-background="new 0 0 252 72" xml:space="preserve">
<rect x="-13.078" y="-94.078" fill="#1B2021" width="254.412" height="74.412"/>
<g>
	<path fill="#C9184A" d="M20.027-94.555c0,0.853,0.706,1.542,1.576,1.542l0,0c0.87,0,1.575-0.689,1.575-1.542v-4.704
		c0-0.85-0.705-1.541-1.575-1.541l0,0c-0.871,0-1.576,0.691-1.576,1.541V-94.555z"/>
	<path fill="#C9184A" d="M15.928-88.375c0,0.854,0.706,1.543,1.576,1.543l0,0c0.87,0,1.576-0.689,1.576-1.543v-15.854
		c0-0.854-0.706-1.544-1.576-1.544l0,0c-0.871,0-1.576,0.69-1.576,1.544V-88.375z"/>
	<path fill="#C9184A" d="M-15.337-100.528c0-0.852-0.706-1.542-1.576-1.542l0,0c-0.871,0-1.575,0.69-1.575,1.542v7.244
		c0,0.852,0.705,1.543,1.575,1.543l0,0c0.87,0,1.576-0.691,1.576-1.543V-100.528z"/>
	<path fill="#C9184A" d="M-11.076-102.707c0-0.854-0.705-1.544-1.576-1.544l0,0c-0.87,0-1.576,0.69-1.576,1.544v11.602
		c0,0.852,0.707,1.542,1.576,1.542l0,0c0.871,0,1.576-0.69,1.576-1.542V-102.707z"/>
	<path fill="#C9184A" d="M-6.72-107.791c0-0.852-0.705-1.542-1.575-1.542l0,0c-0.871,0-1.576,0.69-1.576,1.542v21.77
		c0,0.85,0.706,1.541,1.576,1.541l0,0c0.871,0,1.575-0.691,1.575-1.541V-107.791z"/>
	<path fill="#C9184A" d="M1.839-110.695c0-0.852-0.706-1.543-1.574-1.543l0,0c-0.873,0-1.576,0.691-1.576,1.543v27.579
		c0,0.851,0.704,1.543,1.576,1.543l0,0c0.869,0,1.574-0.692,1.574-1.543V-110.695z"/>
	<path fill="#C9184A" d="M6.101-107.657c0-0.851-0.706-1.541-1.574-1.541l0,0c-0.871,0-1.577,0.69-1.577,1.541v21.501
		c0,0.852,0.706,1.54,1.577,1.54l0,0c0.869,0,1.574-0.688,1.574-1.54V-107.657z"/>
	<path fill="#C9184A" d="M10.458-103.314c0-0.854-0.706-1.543-1.576-1.543l0,0c-0.869,0-1.576,0.689-1.576,1.543v12.816
		c0,0.852,0.707,1.542,1.576,1.542l0,0c0.871,0,1.576-0.69,1.576-1.542V-103.314z"/>
	<path fill="#C9184A" d="M-2.375-104.16c0-0.853-0.706-1.543-1.576-1.543l0,0c-0.869,0-1.576,0.69-1.576,1.543v14.507
		c0,0.85,0.707,1.541,1.576,1.541l0,0c0.87,0,1.576-0.691,1.576-1.541V-104.16z"/>
	<path fill="#C9184A" d="M14.719-102.46c0-0.853-0.705-1.543-1.576-1.543l0,0c-0.87,0-1.574,0.69-1.574,1.543v11.591
		c0,0.85,0.704,1.541,1.574,1.541l0,0c0.871,0,1.576-0.691,1.576-1.541V-102.46z"/>
</g>
<rect x="-61.5" y="-0.334" fill="#C9184A" width="13.49" height="13.49"/>
<rect x="-61.5" y="16.888" fill="#9F86C0" width="13.49" height="13.49"/>
<rect x="-39.095" y="-0.334" fill="#E74B7A" width="13.49" height="13.49"/>
<g>
	<path fill="#C9184A" d="M21.594,29.541c0-1.462-1.211-2.65-2.707-2.65l0,0c-1.494,0-2.704,1.188-2.704,2.65v12.442
		c0,1.462,1.209,2.649,2.704,2.649l0,0c1.496,0,2.707-1.188,2.707-2.649V29.541z"/>
	<path fill="#C9184A" d="M28.913,25.797c0-1.466-1.211-2.65-2.707-2.65l0,0c-1.493,0-2.707,1.185-2.707,2.65v19.924
		c0,1.463,1.214,2.65,2.707,2.65l0,0c1.496,0,2.707-1.188,2.707-2.65V25.797z"/>
	<path fill="#C9184A" d="M36.393,17.066c0-1.463-1.209-2.648-2.704-2.648l0,0c-1.496,0-2.707,1.186-2.707,2.648v37.387
		c0,1.46,1.211,2.647,2.707,2.647l0,0c1.495,0,2.704-1.188,2.704-2.647V17.066z"/>
	<path fill="#C9184A" d="M51.094,12.078c0-1.463-1.212-2.65-2.704-2.65l0,0c-1.498,0-2.707,1.187-2.707,2.65v47.364
		c0,1.463,1.209,2.65,2.707,2.65l0,0c1.491,0,2.704-1.188,2.704-2.65V12.078z"/>
	<path fill="#C9184A" d="M58.415,17.295c0-1.461-1.212-2.646-2.703-2.646l0,0c-1.496,0-2.709,1.186-2.709,2.646v36.926
		c0,1.463,1.213,2.647,2.709,2.647l0,0c1.491,0,2.703-1.185,2.703-2.647V17.295z"/>
	<path fill="#C9184A" d="M43.857,23.301c0-1.462-1.211-2.65-2.705-2.65l0,0c-1.493,0-2.707,1.188-2.707,2.65v24.917
		c0,1.459,1.214,2.646,2.707,2.646l0,0c1.494,0,2.705-1.188,2.705-2.646V23.301z"/>
</g>
<g>
	<g>
		<polygon fill="#1B2021" points="101.128,62.391 95.745,62.391 95.745,59.443 97.815,59.443 97.815,35.102 98.35,35.102 
			98.35,59.979 96.279,59.979 96.279,61.855 100.594,61.855 100.594,31.805 95.966,31.805 95.966,57.291 91.522,62.061 
			74.995,62.061 67.63,54.695 67.63,38.866 74.995,31.502 91.534,31.502 93.864,34.338 93.451,34.678 91.281,32.037 75.216,32.037 
			68.165,39.088 68.165,54.475 75.216,61.525 91.29,61.525 95.432,57.08 95.432,31.271 101.128,31.271 		"/>
	</g>
	<g>
		<polygon fill="#1B2021" points="88.75,57.09 77.813,57.09 72.671,51.949 72.671,41.5 77.55,36.621 88.611,36.621 90.985,38.995 
			90.607,39.373 88.39,37.155 77.771,37.155 73.206,41.721 73.206,51.727 78.034,56.555 88.527,56.555 93.391,51.645 93.391,34.27 
			93.925,34.27 93.925,51.863 		"/>
	</g>
	<g>
		<polygon fill="#1B2021" points="90.215,59.707 76.264,59.707 69.915,53.357 69.915,40.321 76.317,33.919 90.171,33.919 
			90.171,34.454 76.539,34.454 70.45,40.543 70.45,53.137 76.485,59.172 89.994,59.172 91.707,57.467 92.084,57.846 		"/>
	</g>
	<g>
		<polygon fill="#1B2021" points="114.727,63.436 108.93,57.637 108.93,36.601 105.441,33.151 105.817,32.771 109.464,36.377 
			109.464,57.416 114.699,62.65 116.302,60.801 111.768,56.268 111.768,35.78 107.105,31.271 112.148,31.271 115.072,34.264 
			115.072,54.701 117.585,57.338 117.199,57.707 114.537,54.914 114.537,34.482 111.923,31.805 108.427,31.805 112.303,35.553 
			112.303,56.047 117.032,60.775 		"/>
	</g>
	<g>
		<polygon fill="#1B2021" points="114.983,38.726 114.626,38.327 119.902,33.599 131.928,33.596 131.928,34.131 120.107,34.133 		
			"/>
	</g>
	<g>
		<polygon fill="#1B2021" points="114.896,43.057 114.531,42.666 120.711,36.887 132.772,36.887 135.78,38.848 135.78,32.555 
			134.086,31.529 118.838,31.529 114.97,34.583 114.639,34.164 118.652,30.995 134.236,30.995 136.314,32.253 136.314,39.835 
			132.613,37.421 120.922,37.421 		"/>
	</g>
	<g>
		<g>
			<polygon fill="#1B2021" points="165.512,62.4 146.755,62.4 139.201,54.938 139.18,6.462 139.715,6.462 139.736,54.715 
				146.975,61.867 165.289,61.867 171.816,55.252 171.816,38.184 165.199,31.48 148.639,31.48 145.752,33.405 145.752,10.673 
				146.286,10.673 146.287,32.406 148.478,30.945 165.423,30.945 172.352,37.964 172.352,55.471 			"/>
		</g>
		<g>
			<polygon fill="#1B2021" points="164.266,59.551 148.362,59.551 142.498,53.961 142.5,8.512 143.034,8.512 143.033,53.732 
				148.576,59.016 164.041,59.016 168.965,54.004 169.053,39.523 163.776,34.398 150.197,34.398 147.196,36.376 146.902,35.929 
				150.037,33.863 163.994,33.863 169.589,39.299 169.498,54.225 			"/>
		</g>
		<g>
			<path fill="#1B2021" d="M162.125,57.055h-11.113l-5.105-4.967V40.414l5.19-3.944h11.028l4.5,4.501v11.584L162.125,57.055z
				 M151.229,56.52h10.674l4.188-4.188V41.191l-4.188-4.188h-10.625l-4.836,3.676v11.184L151.229,56.52z"/>
		</g>
	</g>
	<g>
		<polygon fill="#1B2021" points="218.162,63.436 212.363,57.637 212.363,36.602 208.867,33.186 209.24,32.803 212.898,36.376 
			212.898,57.416 218.134,62.65 219.735,60.801 215.202,56.268 215.202,35.78 210.539,31.271 215.582,31.271 218.506,34.264 
			218.506,54.701 220.943,57.271 220.556,57.639 217.971,54.914 217.971,34.482 215.356,31.805 211.861,31.805 215.736,35.553 
			215.736,56.047 220.465,60.775 		"/>
	</g>
	<g>
		<polygon fill="#1B2021" points="218.417,38.726 218.06,38.327 223.338,33.598 223.44,33.599 235.453,33.629 235.453,34.164 
			223.541,34.134 		"/>
	</g>
	<g>
		<polygon fill="#1B2021" points="218.33,43.057 217.965,42.666 224.145,36.887 236.207,36.887 239.215,38.848 239.215,32.555 
			237.52,31.529 222.271,31.529 218.404,34.583 218.072,34.164 222.086,30.995 237.67,30.995 239.75,32.253 239.75,39.835 
			236.047,37.421 224.355,37.421 		"/>
	</g>
	<g>
		<path fill="#1B2021" d="M200.245,62.213h-16.866l-7.606-7.607V38.433l7.606-7.607h16.867l6.913,6.914v17.558L200.245,62.213z
			 M183.602,61.678h16.422l6.602-6.602V37.961l-6.6-6.601h-16.424l-7.295,7.293v15.731L183.602,61.678z M197.221,56.828h-11.057
			l-5.006-5.008V41.217l5.006-5.007h11.057l4.553,4.556v11.506L197.221,56.828z M186.386,56.293h10.613l4.24-4.242V40.986
			l-4.24-4.242h-10.613l-4.693,4.694V51.6L186.386,56.293z"/>
	</g>
	<g>
		<polygon fill="#1B2021" points="198.779,59.391 184.879,59.391 178.256,53.1 178.256,39.84 179.162,38.982 179.53,39.371 
			178.791,40.07 178.791,52.869 185.092,58.855 198.545,58.855 203.67,53.277 203.67,39.094 198.978,34.191 185.081,34.191 
			184.095,35.005 183.754,34.593 184.889,33.657 199.207,33.657 204.204,38.878 204.204,53.484 		"/>
	</g>
	<g>
		<g>
			<path fill="#1B2021" d="M146.087,35.012c-0.746,0-1.351,0.604-1.351,1.35c0,0.746,0.604,1.351,1.351,1.351
				c0.745,0,1.351-0.604,1.351-1.351C147.438,35.616,146.832,35.012,146.087,35.012z M146.088,37.151
				c-0.436,0-0.79-0.354-0.79-0.789c0-0.436,0.354-0.79,0.79-0.79c0.437,0,0.789,0.354,0.789,0.79
				C146.877,36.798,146.524,37.151,146.088,37.151z"/>
		</g>
	</g>
	<g>
		<g>
			<path fill="#1B2021" d="M146.225,8.221c-0.746,0-1.351,0.605-1.351,1.351c0,0.746,0.604,1.35,1.351,1.35
				c0.747,0,1.352-0.604,1.352-1.35C147.576,8.826,146.972,8.221,146.225,8.221z M146.211,10.361c-0.437,0-0.791-0.354-0.791-0.789
				c0-0.436,0.354-0.79,0.791-0.79c0.436,0,0.789,0.354,0.789,0.79C147,10.007,146.646,10.361,146.211,10.361z"/>
		</g>
	</g>
	<g>
		<g>
			<path fill="#1B2021" d="M142.828,6.142c-0.746,0-1.352,0.604-1.352,1.351s0.605,1.35,1.352,1.35c0.745,0,1.35-0.604,1.35-1.35
				S143.573,6.142,142.828,6.142z M142.812,8.282c-0.436,0-0.789-0.353-0.789-0.788c0-0.438,0.354-0.791,0.789-0.791
				c0.437,0,0.789,0.353,0.789,0.791C143.602,7.93,143.249,8.282,142.812,8.282z"/>
		</g>
	</g>
	<g>
		<g>
			<path fill="#1B2021" d="M139.599,4.07c-0.745,0-1.351,0.605-1.351,1.351s0.605,1.351,1.351,1.351
				c0.747,0,1.351-0.605,1.351-1.351S140.346,4.07,139.599,4.07z M139.584,6.21c-0.436,0-0.789-0.354-0.789-0.79
				c0-0.435,0.354-0.789,0.789-0.789c0.437,0,0.789,0.354,0.789,0.789C140.373,5.857,140.021,6.21,139.584,6.21z"/>
		</g>
	</g>
	<g>
		<g>
			<path fill="#1B2021" d="M180.151,37.171c-0.747,0-1.351,0.605-1.351,1.352c0,0.745,0.604,1.351,1.351,1.351
				c0.744,0,1.35-0.605,1.35-1.351C181.501,37.776,180.896,37.171,180.151,37.171z M180.151,39.313c-0.435,0-0.79-0.354-0.79-0.79
				s0.355-0.789,0.79-0.789c0.437,0,0.79,0.354,0.79,0.789S180.588,39.313,180.151,39.313z"/>
		</g>
	</g>
	<g>
		<g>
			<path fill="#1B2021" d="M183.047,33.925c-0.748,0-1.352,0.605-1.352,1.352c0,0.746,0.604,1.351,1.352,1.351
				c0.746,0,1.35-0.605,1.35-1.351C184.396,34.53,183.793,33.925,183.047,33.925z M183.047,36.066c-0.436,0-0.79-0.353-0.79-0.789
				c0-0.437,0.354-0.79,0.79-0.79c0.437,0,0.789,0.353,0.789,0.79C183.836,35.713,183.483,36.066,183.047,36.066z"/>
		</g>
	</g>
	<g>
		<g>
			<path fill="#1B2021" d="M208.244,31.052c-0.746,0-1.35,0.605-1.35,1.352c0,0.745,0.604,1.35,1.35,1.35s1.351-0.605,1.351-1.35
				C209.595,31.657,208.99,31.052,208.244,31.052z M208.244,33.193c-0.436,0-0.79-0.354-0.79-0.789c0-0.437,0.354-0.79,0.79-0.79
				c0.437,0,0.789,0.354,0.789,0.79C209.033,32.839,208.681,33.193,208.244,33.193z"/>
		</g>
	</g>
	<g>
		<g>
			<path fill="#1B2021" d="M236.375,32.918c-0.744,0-1.35,0.605-1.35,1.351c0,0.745,0.605,1.351,1.35,1.351
				c0.748,0,1.352-0.606,1.352-1.351C237.727,33.523,237.123,32.918,236.375,32.918z M236.375,35.059
				c-0.436,0-0.789-0.353-0.789-0.789c0-0.437,0.354-0.79,0.789-0.79c0.438,0,0.789,0.353,0.789,0.79
				C237.164,34.706,236.812,35.059,236.375,35.059z"/>
		</g>
	</g>
	<g>
		<g>
			<path fill="#1B2021" d="M221.475,56.822c-0.746,0-1.352,0.605-1.352,1.352s0.605,1.35,1.352,1.35s1.352-0.604,1.352-1.35
				S222.221,56.822,221.475,56.822z M221.475,58.963c-0.436,0-0.79-0.354-0.79-0.789c0-0.438,0.354-0.789,0.79-0.789
				c0.438,0,0.79,0.352,0.79,0.789C222.265,58.609,221.912,58.963,221.475,58.963z"/>
		</g>
	</g>
	<g>
		<g>
			<path fill="#1B2021" d="M132.941,32.836c-0.746,0-1.35,0.605-1.35,1.351c0,0.745,0.604,1.351,1.35,1.351s1.352-0.606,1.352-1.351
				C134.293,33.441,133.688,32.836,132.941,32.836z M132.941,34.976c-0.436,0-0.789-0.354-0.789-0.789
				c0-0.437,0.354-0.79,0.789-0.79c0.438,0,0.79,0.354,0.79,0.79C133.731,34.622,133.379,34.976,132.941,34.976z"/>
		</g>
	</g>
	<g>
		<g>
			<path fill="#1B2021" d="M118.041,56.822c-0.747,0-1.351,0.605-1.351,1.352s0.604,1.35,1.351,1.35c0.746,0,1.351-0.604,1.351-1.35
				S118.787,56.822,118.041,56.822z M118.041,58.963c-0.436,0-0.79-0.354-0.79-0.789c0-0.438,0.354-0.789,0.79-0.789
				s0.789,0.352,0.789,0.789C118.83,58.609,118.477,58.963,118.041,58.963z"/>
		</g>
	</g>
	<g>
		<g>
			<path fill="#1B2021" d="M104.81,31.052c-0.747,0-1.351,0.605-1.351,1.352c0,0.745,0.604,1.35,1.351,1.35s1.351-0.605,1.351-1.35
				C106.16,31.657,105.556,31.052,104.81,31.052z M104.81,33.192c-0.436,0-0.79-0.354-0.79-0.789c0-0.437,0.354-0.791,0.79-0.791
				c0.436,0,0.79,0.354,0.79,0.791C105.599,32.839,105.246,33.192,104.81,33.192z"/>
		</g>
	</g>
	<g>
		<g>
			<path fill="#1B2021" d="M98.406,32.918c-0.748,0-1.351,0.605-1.351,1.351c0,0.745,0.604,1.351,1.351,1.351
				c0.745,0,1.35-0.606,1.35-1.351C99.756,33.523,99.151,32.918,98.406,32.918z M98.406,35.059c-0.437,0-0.79-0.353-0.79-0.789
				c0-0.437,0.353-0.79,0.79-0.79c0.436,0,0.788,0.353,0.788,0.79C99.194,34.706,98.842,35.059,98.406,35.059z"/>
		</g>
	</g>
	<g>
		<g>
			<path fill="#1B2021" d="M92.583,55.473c-0.747,0-1.351,0.604-1.351,1.35s0.604,1.352,1.351,1.352s1.351-0.605,1.351-1.352
				S93.33,55.473,92.583,55.473z M92.583,57.611c-0.436,0-0.79-0.354-0.79-0.789s0.354-0.789,0.79-0.789
				c0.437,0,0.79,0.354,0.79,0.789S93.02,57.611,92.583,57.611z"/>
		</g>
	</g>
	<g>
		<g>
			<path fill="#1B2021" d="M90.171,38.636c-0.748,0-1.351,0.604-1.351,1.351s0.604,1.352,1.351,1.352c0.745,0,1.35-0.605,1.35-1.352
				S90.917,38.636,90.171,38.636z M90.171,40.775c-0.437,0-0.79-0.354-0.79-0.789s0.353-0.789,0.79-0.789
				c0.436,0,0.788,0.354,0.788,0.789S90.607,40.775,90.171,40.775z"/>
		</g>
	</g>
	<g>
		<g>
			<path fill="#1B2021" d="M90.41,33.821c-0.747,0-1.351,0.605-1.351,1.351s0.604,1.351,1.351,1.351
				c0.746,0,1.351-0.605,1.351-1.351S91.156,33.821,90.41,33.821z M90.409,35.961c-0.436,0-0.789-0.354-0.789-0.79
				c0-0.436,0.354-0.79,0.789-0.79c0.437,0,0.79,0.354,0.79,0.79C91.199,35.608,90.846,35.961,90.409,35.961z"/>
		</g>
	</g>
</g>
</svg>
