<?xml version="1.0" encoding="utf-8"?>
<!-- Generator: Adobe Illustrator 16.0.0, SVG Export Plug-In . SVG Version: 6.00 Build 0)  -->
<!DOCTYPE svg PUBLIC "-//W3C//DTD SVG 1.1//EN" "http://www.w3.org/Graphics/SVG/1.1/DTD/svg11.dtd">
<svg version="1.1" id="Layer_1" xmlns="http://www.w3.org/2000/svg" xmlns:xlink="http://www.w3.org/1999/xlink" x="0px" y="0px"
	 width="432px" height="432px" viewBox="0 0 432 432" enable-background="new 0 0 432 432" xml:space="preserve">
<rect x="-1.872" y="-2" fill="#1B2021" width="435.529" height="435.525"/>
<circle fill="none" cx="282.667" cy="359.669" r="1.533"/>
<g>
	<g>
		<circle fill="none" cx="119.369" cy="355.998" r="1.522"/>
		<path fill="#F1F1F1" d="M113.353,349.935v49.923l-7.823,8.395H74.787L61.36,394.826v-29.424l13.426-13.425h30.715l3.916,4.766
			v32.625l-9.208,9.304H80.219l-9.142-9.14v-19.054l8.633-8.635h20.233l2.571,2.569c-0.951,0.387-1.624,1.32-1.624,2.411
			c0,1.436,1.166,2.604,2.604,2.604c1.438,0,2.604-1.168,2.604-2.604c0-0.757-0.329-1.43-0.844-1.908l0.009-0.009l-4.659-4.66
			H79.049l-9.569,9.57v20.375l10.078,10.076h21.318l10.14-10.241v-34.029h-0.238l0.056-0.047l-4.577-5.572H74.125l-14.362,14.363
			v30.744l14.362,14.362h32.099l8.727-9.361v-48.956h8.354v57.358h-7.751v-3.054h3.992v-47.252c1.354-0.095,2.428-1.211,2.428-2.586
			c0-1.438-1.167-2.604-2.604-2.604c-1.44,0-2.603,1.166-2.603,2.604c0,0.91,0.471,1.712,1.182,2.177v46.064h-3.992v6.249h10.946
			v-60.554H113.353z M105.017,366.824c0,0.84-0.681,1.521-1.521,1.521c-0.84,0-1.522-0.681-1.522-1.521
			c0-0.841,0.682-1.521,1.522-1.521C104.336,365.303,105.017,365.983,105.017,366.824z M117.847,355.998
			c0-0.839,0.682-1.522,1.522-1.522s1.521,0.684,1.521,1.522c0,0.84-0.68,1.521-1.521,1.521S117.847,356.838,117.847,355.998z"/>
	</g>
	<path fill="#F1F1F1" d="M188.513,349.4h-30.215l-7.251,5.727l-5.069-5.192h-10.539l9.405,9.093v39.49l8.634,8.636l-2.717,3.136
		l-9.794-9.792v-40.554l-6.779-6.777c0.077-0.244,0.128-0.497,0.128-0.766c0-1.437-1.165-2.604-2.601-2.604
		c-1.441,0-2.605,1.168-2.605,2.604c0,1.436,1.164,2.603,2.605,2.603c0.577,0,1.107-0.193,1.538-0.516l6.117,6.118v40.552
		l11.477,11.474l4.813-5.557l-9.218-9.217V358.35l-7.053-6.818h5.917l4.874,4.99v39.386l4.764,4.92
		c-0.205,0.374-0.33,0.792-0.33,1.248c0,1.435,1.164,2.601,2.604,2.601c1.436,0,2.603-1.166,2.603-2.601
		c0-1.438-1.167-2.604-2.603-2.604c-0.4,0-0.775,0.096-1.115,0.259l-4.326-4.467v-22.521l11.107-10.388h22.34l7.502,4.892v-15.297
		L188.513,349.4z M131.715,353.92c-0.843,0-1.522-0.68-1.522-1.52c0-0.841,0.68-1.521,1.522-1.521c0.838,0,1.519,0.681,1.519,1.521
		C133.234,353.24,132.553,353.92,131.715,353.92z M157.219,400.552c0.838,0,1.519,0.681,1.519,1.523
		c0,0.839-0.681,1.518-1.519,1.518c-0.843,0-1.522-0.679-1.522-1.518C155.697,401.232,156.376,400.552,157.219,400.552z
		 M191.128,364.299l-5.431-3.541h-23.444l-10.477,9.798v-5.997l9.531-8.542l22.048,0.004c0.094,1.35,1.208,2.42,2.585,2.42
		c1.437,0,2.603-1.168,2.603-2.601c0-1.438-1.167-2.606-2.603-2.606c-0.916,0-1.717,0.475-2.181,1.189l-23.063-0.003l-8.92,7.994
		v-5.83l7.077-5.587h29.213l3.062,1.853V364.299z M184.42,355.84c0-0.843,0.68-1.523,1.522-1.523c0.839,0,1.519,0.681,1.519,1.523
		c0,0.837-0.68,1.518-1.519,1.518C185.1,357.357,184.42,356.677,184.42,355.84z"/>
	<path fill="#F1F1F1" d="M387.892,349.4h-30.215l-7.25,5.727l-5.069-5.192h-10.54l9.405,9.093v39.49l8.634,8.636l-2.716,3.136
		l-9.792-9.792v-40.554l-6.779-6.774c0.075-0.247,0.129-0.5,0.129-0.769c0-1.437-1.168-2.604-2.606-2.604
		c-1.437,0-2.601,1.168-2.601,2.604c0,1.436,1.164,2.603,2.601,2.603c0.579,0,1.108-0.193,1.542-0.516l6.117,6.118v40.552
		l11.473,11.474l4.814-5.557l-9.219-9.217V358.35l-7.052-6.818h5.917l4.876,4.99v39.386l4.763,4.923
		c-0.206,0.371-0.33,0.789-0.33,1.245c0,1.435,1.166,2.601,2.604,2.601c1.438,0,2.604-1.166,2.604-2.601
		c0-1.438-1.167-2.604-2.604-2.604c-0.402,0-0.776,0.096-1.118,0.259l-4.322-4.467v-22.521l11.104-10.388h22.342l7.502,4.892
		v-15.297L387.892,349.4z M331.043,353.924c-0.839,0-1.522-0.684-1.522-1.523c0-0.838,0.684-1.521,1.522-1.521
		c0.843,0,1.521,0.684,1.521,1.521C332.564,353.24,331.886,353.924,331.043,353.924z M356.598,400.552
		c0.842,0,1.521,0.681,1.521,1.523c0,0.839-0.68,1.518-1.521,1.518c-0.84,0-1.523-0.679-1.523-1.518
		C355.074,401.232,355.758,400.552,356.598,400.552z M390.509,364.299l-5.431-3.541h-23.446l-10.475,9.798v-5.994l9.533-8.545
		l22.028,0.004c0.013,1.426,1.171,2.579,2.603,2.579c1.437,0,2.604-1.166,2.604-2.602c0-1.438-1.168-2.604-2.604-2.604
		c-0.846,0-1.586,0.405-2.059,1.029l-23.184-0.003l-8.922,7.994v-5.83l7.075-5.587h29.213l3.063,1.853V364.299z M383.795,355.998
		c0-0.839,0.685-1.522,1.523-1.522c0.841,0,1.521,0.684,1.521,1.522c0,0.84-0.681,1.521-1.521,1.521
		C384.479,357.52,383.795,356.838,383.795,355.998z"/>
	<path fill="#F1F1F1" d="M278.6,389.947l9.815,9.815h21.546l8.943-8.946v-22.415l-8.943-8.947h-21.546l-9.815,9.816V389.947z
		 M280.196,369.932l8.881-8.88h20.224l8.007,8.01v21.095l-8.007,8.01h-20.224l-8.881-8.881V369.932z"/>
	<path fill="#F1F1F1" d="M283.048,349.076l-14.83,14.83v31.405l14.83,14.83h32.744l13.494-13.494v-34.081l-13.49-13.49H283.048z
		 M327.689,395.985l-12.559,12.559h-31.422l-13.895-13.895v-30.082l13.895-13.895h31.425l12.556,12.556V395.985z"/>
	<path fill="#F1F1F1" d="M286.007,354.531l-1.917,1.338c-0.438-0.333-0.977-0.536-1.565-0.536c-1.441,0-2.606,1.167-2.606,2.604
		c0,1.436,1.165,2.602,2.606,2.602c1.437,0,2.602-1.166,2.602-2.602c0-0.264-0.054-0.514-0.126-0.754l1.511-1.055h26.599
		l8.884,9.279v27.115l-9.723,10.581h-25.691l-11.977-11.377v-24.44l0.915-0.917c0.408,0.268,0.898,0.428,1.425,0.428
		c1.436,0,2.602-1.168,2.602-2.603c0-1.437-1.166-2.604-2.602-2.604c-1.44,0-2.604,1.168-2.604,2.604
		c0,0.325,0.064,0.633,0.174,0.921l-1.507,1.509v25.79l12.937,12.286h27.03l10.617-11.557v-28.377l-9.797-10.236H286.007z
		 M282.524,359.461c-0.84,0-1.523-0.681-1.523-1.52c0-0.843,0.684-1.521,1.523-1.521c0.841,0,1.521,0.679,1.521,1.521
		C284.046,358.78,283.365,359.461,282.524,359.461z M276.942,362.677c0.843,0,1.521,0.681,1.521,1.521
		c0,0.839-0.679,1.52-1.521,1.52c-0.839,0-1.522-0.681-1.522-1.52C275.42,363.357,276.104,362.677,276.942,362.677z"/>
	<path fill="#F1F1F1" d="M103.828,360.212c1.437,0,2.604-1.166,2.604-2.604c0-1.438-1.167-2.604-2.604-2.604
		c-0.117,0-0.228,0.022-0.341,0.035H76.676l-12.509,12.508v25.36l12.405,12.406h27.127l3.441-3.44
		c0.309,0.131,0.648,0.203,1.006,0.203c1.437,0,2.603-1.167,2.603-2.604c0-1.438-1.166-2.604-2.603-2.604
		c-1.44,0-2.604,1.166-2.604,2.604c0,0.495,0.147,0.957,0.388,1.35l-2.892,2.896H77.232l-11.468-11.471v-24.037l11.573-11.573
		h24.079c-0.122,0.302-0.19,0.63-0.19,0.973C101.225,359.046,102.388,360.212,103.828,360.212z M103.827,356.085
		c0.841,0,1.521,0.684,1.521,1.522c0,0.84-0.68,1.521-1.521,1.521c-0.84,0-1.522-0.682-1.522-1.521
		C102.304,356.769,102.986,356.085,103.827,356.085z M108.178,397.916c0.842,0,1.522,0.681,1.522,1.523
		c0,0.839-0.68,1.518-1.522,1.518c-0.839,0-1.522-0.679-1.522-1.518C106.656,398.597,107.339,397.916,108.178,397.916z"/>
	<g>
		<path fill="#F1F1F1" d="M243.603,400.737l8.965-8.966V369.33l-8.965-8.966h-21.571l-10.494,8.205v24.942l7.17,7.226H243.603z
			 M213.075,370.008l9.646-7.983h20.193l7.993,7.992v21.068l-7.993,7.992h-23.52l-6.32-6.319V370.008z"/>
		<g>
			<path fill="#F1F1F1" d="M221.856,154.579l19.931,24.464l0.184,56.357l-22.294,25.499v19.034l-15.021,14.893v99.934h0.089
				l10.582,10.898h30.999l11.226-10.553v-29.197L246.329,355.2h-26.928l-5.565,3.761c-0.431-0.312-0.954-0.501-1.527-0.501
				c-1.438,0-2.603,1.163-2.603,2.601c0,1.438,1.165,2.604,2.603,2.604s2.604-1.166,2.604-2.604c0-0.284-0.057-0.548-0.141-0.805
				l5.119-3.459h25.798l10.266,9.795v27.825l-10.263,9.645h-29.69l-9.623-9.913v-98.913l14.822-14.712v-19.044l22.296-25.497
				l-0.184-57.483l-19.304-23.695l46.9-37.684l-0.069-22.348l-1.524,0.004l0.067,21.617L221.856,154.579z M212.317,362.617
				c-0.842,0-1.522-0.68-1.522-1.519c0-0.843,0.68-1.523,1.522-1.523c0.839,0,1.519,0.681,1.519,1.523
				C213.836,361.938,213.156,362.617,212.317,362.617z"/>
			<path fill="#F1F1F1" d="M280.152,206.45c-1.35,0-2.477,0.914-2.826,2.149H265.75l-15.906,12.522l-0.025-5.832l24.4-19.444
				l50.429-0.049l-0.006-1.525l-48.507,0.049l4.436-3.537l37.681-0.083l-0.007-1.525l-35.755,0.081l3.195-2.444l32.696-0.073
				l-0.003-1.525l-30.93,0.09l4.331-3.45l-0.004-26.417l24.207-21.852l-1.22-1.001l-24.514,22.101v26.439l-40.438,32.223
				l-0.028-6.811l35.845-27.914l-0.08-26.104l24.502-21.484l-0.932-1.155l-25.1,21.898l0.085,26.102l-34.329,26.732l-0.025-5.689
				l29.899-23.202l-0.084-26.186l23.925-21.599l-1.051-1.194l-24.402,22.084l0.067,21.166l-13.597,10.131v-15.238l-5.605-5.603
				c0.24-0.427,0.387-0.911,0.387-1.435c0-1.628-1.32-2.951-2.948-2.951c-1.632,0-2.95,1.322-2.95,2.951s1.318,2.95,2.95,2.95
				c0.521,0,1.007-0.148,1.432-0.387l5.138,5.136v15.769l-13.194,9.833l-0.063-14.1l-18.114-21.881l45.217-35.678V98.786
				l-1.526,0.003v19.971l-45.858,36.197l18.761,22.648l0.266,59.689l-21.918,25.959l0.393,17.713l-15.332,16.173v58.263l1.538-1.026
				l4.278-2.73h31.396l12.536,12.54v32.729l-12.539,12.541h-34.72l-13.684-13.686V291.18l14.405-14.23l-0.057-17.772l22.822-26.486
				l-0.172-53.67l-20.73-24.462l48.022-39.697l-0.027-23.883l-1.526,0.005l0.024,23.163l-48.654,40.223l21.369,25.212l0.169,52.541
				l-22.823,26.489l0.056,17.703l-14.92,14.728v105.235h0.2l14.839,14.839h36.095l13.511-13.51v-34.107l-13.511-13.511h-32.769
				l-3.592,2.246l0.043-54.453l15.277-16.205l-0.393-17.743l21.916-25.966l-0.065-14.72l16.448-12.95h11.024
				c0.35,1.239,1.477,2.153,2.826,2.153c1.629,0,2.948-1.323,2.948-2.952S281.781,206.45,280.152,206.45z M256.335,159.371
				c-0.838,0-1.521-0.683-1.521-1.522c0-0.838,0.684-1.522,1.521-1.522c0.843,0,1.523,0.684,1.523,1.522
				C257.858,158.688,257.178,159.371,256.335,159.371z M249.723,193.042l28.384-21.253l0.012,3.185l-28.38,22.024L249.723,193.042z
				 M280.152,210.92c-0.839,0-1.521-0.681-1.521-1.52c0-0.841,0.683-1.521,1.521-1.521c0.843,0,1.523,0.68,1.523,1.521
				C281.676,210.239,280.995,210.92,280.152,210.92z"/>
			<path fill="#F1F1F1" d="M193.566,301.381l-0.084-12.922l15.146-13.822l-0.059-18.163l23.167-27.334l-0.201-49.021l-21.456-25.657
				l48.96-40.196c1.217-0.363,2.109-1.478,2.109-2.812c0-1.628-1.32-2.951-2.948-2.951c-1.632,0-2.95,1.322-2.95,2.951
				c0,1.148,0.663,2.134,1.622,2.62l-10.379,8.519l0.608-0.503l-10.306-12.435v-6.139c1.236-0.35,2.151-1.477,2.151-2.825
				c0-1.628-1.322-2.951-2.95-2.951s-2.948,1.323-2.948,2.951c0,1.349,0.911,2.476,2.148,2.825v6.714l10.672,12.875l-9.773,8.023
				l-21.792-26.971l12.257-9.174l-0.054-23.707l-1.524,0.004l0.049,22.939l-11.689,8.75l-2.09-2.59l9.963-7.406l-0.031-24.02
				l-1.521,0.004l0.025,23.252l-9.397,6.982l-1.744-2.157l8.343-6.081l-0.028-25.111l-1.527,0.005l0.024,24.331l-7.769,5.668
				L190.45,74.634h-10.372l0.004,1.525l9.645,0.002l45.191,55.933l-3.234,2.655l-43.578-55.557l-8.175-0.022l0.003,1.524l7.43,0.025
				l43.14,54.996l-2.217,1.82l-42.352-54.858l-5.854,0.033l0.002,1.525l5.105-0.031l41.92,54.297l-2.021,1.661l-30.044-38.456
				v-0.036h-16.049c-0.349-1.238-1.475-2.151-2.824-2.151c-1.63,0-2.95,1.322-2.95,2.95c0,1.627,1.32,2.949,2.95,2.949
				c1.349,0,2.476-0.914,2.824-2.15h15.335l0.928,1.186l-18.626,14.667l0.124,38.614l-8.723-9.71l-0.117-21.206l-16.804-21.4
				l-19.45,0.031l0.006,1.524l18.698-0.03l16.02,20.388l0.117,21.255l32.33,35.989l-0.847,47.491l15.344,16.434l-2.937,3.466
				l-16.261-17.678l0.771-47.543l-0.191-0.221l-32.519-36.29v-22.36l-14.025-17.66l-24.483,0.064l0.005,1.523l23.735-0.06
				l13.231,16.639l-0.004,22.409l32.721,36.52l-0.777,47.562l16.806,18.264l-2.357,2.779l0.005,1.406l-17.168-20.207l0.659-47.339
				l-33.722-38.215l-0.076-23.339l-10.849-13.932l-29.9,0.075l0.005,1.525l29.152-0.071l10.069,12.929l0.076,23.392l27.945,31.67
				l0.042,12.849l-6.46-6.242l-23.036,0.063l-8.489-10.67c1.348-0.271,2.365-1.463,2.365-2.89c0-1.63-1.323-2.951-2.95-2.951
				c-1.631,0-2.949,1.321-2.949,2.951c0,0.927,0.436,1.748,1.11,2.288l8.969,11.277l-6.364,0.019l-7.489-9.685v-21.354
				l-17.147-21.21l-0.141,0.117v-0.042l-11.892,0.069l0.006,1.524l11.361-0.064l16.287,20.16v21.337l8.282,10.678l31.463-0.09
				l12.608,12.185l-0.067,4.782l-14.223-13.062l-30.963-0.147l-11.806-14.025l-0.065-20.323l-14.569-18.372l-16.45,0.037
				l0.004,1.526l15.713-0.036l13.778,17.377l0.065,20.311l12.582,15.03l31.108,0.149l14.584,13.383l0.218-0.234l-0.075,5.405
				l-16.892-15.329l-31.774,0.225l-13.314-16.616l0.062-20.542l-12.788-16.567h-13.275l0.005,1.525l12.521,0.005l12.01,15.557
				l-0.025,8.741l-34.301,0.114l0.065,1.524l34.231-0.116l-0.008,2.979l-34.296,0.113l0.011,1.525l34.279-0.112l-0.011,3.93
				l-26.965,0.108v1.522l26.96-0.104v0.312l14.086,17.628l17.944-0.125l12.362,12.204h-34.41c-0.371-1.207-1.48-2.09-2.806-2.09
				c-1.631,0-2.949,1.322-2.949,2.95s1.318,2.952,2.949,2.952c1.372,0,2.516-0.944,2.845-2.215h35.988l12.159,11.295l0.109,13.164
				l17.125,20.528l0.03,9.146l4.578,5.588l-13.198,12.046l0.084,13.567c-1.276,0.324-2.221,1.472-2.221,2.849
				c0,1.625,1.319,2.946,2.951,2.946c1.628,0,2.948-1.321,2.948-2.946C195.719,302.854,194.805,301.729,193.566,301.381z
				 M256.68,111.453c0-0.841,0.679-1.523,1.521-1.523c0.839,0,1.52,0.682,1.52,1.523c0,0.839-0.681,1.521-1.52,1.521
				C257.358,112.974,256.68,112.292,256.68,111.453z M234.475,100.689c0-0.84,0.685-1.522,1.523-1.522
				c0.841,0,1.521,0.682,1.521,1.522c0,0.839-0.681,1.521-1.521,1.521C235.159,102.21,234.475,101.528,234.475,100.689z
				 M176.22,103.976c-0.843,0-1.522-0.683-1.522-1.521c0-0.84,0.68-1.522,1.522-1.522c0.838,0,1.522,0.682,1.522,1.522
				C177.742,103.292,177.058,103.976,176.22,103.976z M217.879,227.509c-0.84,0-1.521-0.683-1.521-1.521
				c0-0.84,0.682-1.523,1.521-1.523c0.841,0,1.52,0.684,1.52,1.523C219.398,226.826,218.72,227.509,217.879,227.509z
				 M178.287,159.441l-0.128-39.545l18.037-14.24l1.789,2.29l-16.612,13.451l0.134,41.627L178.287,159.441z M183.029,164.719
				l-0.128-42.557l16.024-13.014l2.078,2.658l-15.735,12.884l0.138,42.672L183.029,164.719z M186.947,169.08l-0.15-43.625
				l2.452-2.015l0.157,48.375L186.947,169.08z M204.948,237.285v-28.028l9.135-9.134c1.406-0.222,2.491-1.432,2.491-2.901
				c0-1.63-1.325-2.952-2.954-2.952c-1.63,0-2.948,1.321-2.948,2.952c0,1.098,0.606,2.046,1.5,2.552l-8.822,8.821v26.981
				l-3.829-4.102l0.847-47.456l-4.722-5.255l-0.053-14.165c0.421,0.231,0.898,0.374,1.413,0.374c1.628,0,2.948-1.321,2.948-2.948
				c0-1.628-1.32-2.951-2.948-2.951c-1.535,0-2.779,1.176-2.921,2.674l-0.028,0.008l0.001,0.26c0,0.003-0.001,0.006-0.001,0.01
				c0,0.003,0.001,0.006,0.001,0.011l0.058,15.025l-3.186-3.547l-0.161-51.324l11.172-9.18l21.968,28.12l-16,13.133l22.105,26.419
				l0.196,47.903l-3.741,4.414l-0.049-14.599c1.269-0.33,2.212-1.473,2.212-2.842c0-1.632-1.323-2.95-2.952-2.95
				c-1.631,0-2.95,1.318-2.95,2.95c0,1.353,0.92,2.483,2.165,2.829l0.053,16.404l-4.464,5.269v-12.72
				c0.213-0.406,0.343-0.861,0.343-1.351c0-1.632-1.321-2.952-2.951-2.952c-1.631,0-2.949,1.32-2.949,2.952
				c0,1.625,1.318,2.947,2.949,2.947c0.202,0,0.402-0.022,0.594-0.06v13.473h0.07l-4.218,4.979L204.948,237.285z M212.102,197.22
				c0-0.84,0.681-1.521,1.522-1.521c0.839,0,1.52,0.681,1.52,1.521c0,0.838-0.681,1.522-1.52,1.522
				C212.782,198.742,212.102,198.058,212.102,197.22z M195.485,162.025c0-0.839,0.68-1.522,1.522-1.522
				c0.839,0,1.521,0.683,1.521,1.522s-0.682,1.522-1.521,1.522C196.165,163.547,195.485,162.865,195.485,162.025z M225.747,217.078
				c-0.843,0-1.523-0.681-1.523-1.52c0-0.843,0.681-1.521,1.523-1.521c0.839,0,1.52,0.679,1.52,1.521
				C227.267,216.397,226.586,217.078,225.747,217.078z M143.188,176.918c0-0.839,0.681-1.523,1.522-1.523
				c0.84,0,1.522,0.684,1.522,1.523c0,0.838-0.682,1.522-1.522,1.522C143.869,178.44,143.188,177.756,143.188,176.918z
				 M132.333,216.838c-0.843,0-1.522-0.681-1.522-1.52c0-0.842,0.68-1.521,1.522-1.521c0.838,0,1.521,0.679,1.521,1.521
				C133.853,216.157,133.171,216.838,132.333,216.838z M184.81,198.137l-0.041-12.594l4.237,4.8l-0.163,11.692L184.81,198.137z
				 M183.307,225.167l-23.979-22.959l5.512-0.038l18.513,17.123L183.307,225.167z M167.067,202.154l4.102-0.028l17.369,15.757
				l0.087-0.098l-0.059,4.252L167.067,202.154z M202.1,269.611l-0.03-9.155l-17.125-20.532l-0.063-19.218l3.656,3.381l-0.19,13.572
				l0.181,0.222l18.527,21.805l0.047,14.285l-0.819,0.744L202.1,269.611z M192.789,305.706c-0.854,0-1.546-0.691-1.546-1.547
				c0-0.854,0.692-1.546,1.546-1.546c0.855,0,1.547,0.691,1.547,1.546C194.336,305.015,193.644,305.706,192.789,305.706z"/>
		</g>
	</g>
</g>
<g>
	<path fill="#E74B7A" d="M88.915,193.31c0,1.628,1.322,2.952,2.952,2.952l0,0c1.631,0,2.955-1.323,2.955-2.952v-9.003
		c0-1.631-1.324-2.953-2.955-2.953l0,0c-1.629,0-2.952,1.322-2.952,2.953V193.31z"/>
	<path fill="#E74B7A" d="M80.93,209.996c0,1.63,1.322,2.952,2.952,2.952l0,0c1.631,0,2.953-1.322,2.953-2.952v-41.681
		c0-1.631-1.322-2.953-2.953-2.953l0,0c-1.63,0-2.952,1.322-2.952,2.953V209.996z"/>
	<path fill="#E74B7A" d="M72.767,212.72c0,1.382,1.32,2.502,2.952,2.502l0,0c1.631,0,2.953-1.121,2.953-2.502v-47.128
		c0-1.383-1.322-2.502-2.953-2.502l0,0c-1.631,0-2.952,1.119-2.952,2.502V212.72z"/>
	<path fill="#E74B7A" d="M64.782,203.045c0,1.628,1.32,2.95,2.951,2.95l0,0c1.632,0,2.952-1.322,2.952-2.95v-27.78
		c0-1.628-1.32-2.952-2.952-2.952l0,0c-1.63,0-2.951,1.324-2.951,2.952V203.045z"/>
	<path fill="#E74B7A" d="M56.727,207.214c0,1.633,1.32,2.955,2.954,2.955l0,0c1.63,0,2.953-1.322,2.953-2.955v-36.116
		c0-1.633-1.322-2.955-2.953-2.955l0,0c-1.633,0-2.954,1.322-2.954,2.955V207.214z"/>
	<path fill="#E74B7A" d="M48.742,203.045c0,1.628,1.322,2.95,2.953,2.95l0,0c1.629,0,2.952-1.322,2.952-2.95v-27.78
		c0-1.628-1.323-2.952-2.952-2.952l0,0c-1.631,0-2.953,1.324-2.953,2.952V203.045z"/>
</g>
<g>
	<path fill="#E74B7A" d="M178.814,69.96c0,1.333,1.078,2.41,2.407,2.41l0,0c1.329,0,2.408-1.077,2.408-2.41v-7.339
		c0-1.331-1.079-2.408-2.408-2.408l0,0c-1.33,0-2.407,1.077-2.407,2.408V69.96z"/>
	<path fill="#E74B7A" d="M172.304,83.565c0,1.328,1.078,2.408,2.409,2.408l0,0c1.327,0,2.406-1.08,2.406-2.408v-33.98
		c0-1.328-1.079-2.408-2.406-2.408l0,0c-1.331,0-2.409,1.08-2.409,2.408V83.565z"/>
	<path fill="#E74B7A" d="M165.649,89.235c0,1.328,1.079,2.406,2.407,2.406l0,0c1.33,0,2.407-1.078,2.407-2.406V43.917
		c0-1.328-1.077-2.408-2.407-2.408l0,0c-1.328,0-2.407,1.08-2.407,2.408V89.235z"/>
	<path fill="#E74B7A" d="M159.141,77.897c0,1.33,1.077,2.408,2.407,2.408l0,0c1.327,0,2.405-1.078,2.405-2.408V55.254
		c0-1.331-1.079-2.408-2.405-2.408l0,0c-1.331,0-2.407,1.077-2.407,2.408V77.897z"/>
	<path fill="#E74B7A" d="M152.574,81.297c0,1.33,1.079,2.406,2.409,2.406l0,0c1.329,0,2.406-1.077,2.406-2.406V51.853
		c0-1.33-1.077-2.408-2.406-2.408l0,0c-1.33,0-2.409,1.078-2.409,2.408V81.297z"/>
	<path fill="#E74B7A" d="M146.065,77.897c0,1.33,1.077,2.408,2.406,2.408l0,0c1.331,0,2.409-1.078,2.409-2.408V55.254
		c0-1.331-1.078-2.408-2.409-2.408l0,0c-1.329,0-2.406,1.077-2.406,2.408V77.897z"/>
	<path fill="#E74B7A" d="M139.412,69.96c0,1.333,1.075,2.41,2.406,2.41l0,0c1.33,0,2.409-1.077,2.409-2.41v-6.771
		c0-1.33-1.079-2.408-2.409-2.408l0,0c-1.331,0-2.406,1.078-2.406,2.408V69.96z"/>
	<path fill="#E74B7A" d="M132.9,66.562c0,1.33,1.078,2.406,2.407,2.406l0,0c1.328,0,2.406-1.077,2.406-2.406v0.026
		c0-1.331-1.078-2.408-2.406-2.408l0,0c-1.33,0-2.407,1.077-2.407,2.408V66.562z"/>
</g>
<g>
	<path fill="#9F86C0" d="M130.75,98.2c0,1.609,1.302,2.911,2.91,2.911l0,0c1.608,0,2.911-1.301,2.911-2.911v-9.557
		c0-1.608-1.302-2.909-2.911-2.909l0,0c-1.608,0-2.91,1.301-2.91,2.909V98.2z"/>
	<path fill="#9F86C0" d="M122.878,104.369c0,1.608,1.304,2.911,2.91,2.911l0,0c1.609,0,2.911-1.303,2.911-2.911V82.473
		c0-1.604-1.302-2.908-2.911-2.908l0,0c-1.606,0-2.91,1.303-2.91,2.908V104.369z"/>
	<path fill="#9F86C0" d="M114.833,107.112c0,1.606,1.302,2.91,2.91,2.91l0,0c1.606,0,2.911-1.303,2.911-2.91V79.733
		c0-1.608-1.304-2.911-2.911-2.911l0,0c-1.608,0-2.91,1.303-2.91,2.911V107.112z"/>
	<path fill="#9F86C0" d="M106.961,113.963c0,1.606,1.302,2.911,2.91,2.911l0,0c1.608,0,2.911-1.305,2.911-2.911V72.879
		c0-1.606-1.303-2.908-2.911-2.908l0,0c-1.608,0-2.91,1.301-2.91,2.908V113.963z"/>
	<path fill="#9F86C0" d="M99.025,105.74c0,1.606,1.304,2.911,2.91,2.911l0,0c1.606,0,2.909-1.305,2.909-2.911V81.102
		c0-1.606-1.303-2.909-2.909-2.909l0,0c-1.606,0-2.91,1.303-2.91,2.909V105.74z"/>
	<path fill="#9F86C0" d="M91.152,105.74c0,1.606,1.302,2.911,2.91,2.911l0,0c1.609,0,2.91-1.305,2.91-2.911V81.102
		c0-1.606-1.301-2.909-2.91-2.909l0,0c-1.608,0-2.91,1.303-2.91,2.909V105.74z"/>
	<path fill="#9F86C0" d="M83.107,102.686c0,1.086,1.302,1.969,2.909,1.969l0,0c1.608,0,2.913-0.883,2.913-1.969V84.159
		c0-1.087-1.305-1.971-2.913-1.971l0,0c-1.606,0-2.909,0.883-2.909,1.971V102.686z"/>
	<path fill="#9F86C0" d="M75.237,102.313c0,1.608,1.301,2.911,2.909,2.911l0,0c1.608,0,2.911-1.303,2.911-2.911V85.216
		c0-1.608-1.302-2.911-2.911-2.911l0,0c-1.608,0-2.909,1.303-2.909,2.911V102.313z"/>
	<path fill="#9F86C0" d="M67.072,97.517c0,1.609,1.302,2.909,2.908,2.909l0,0c1.608,0,2.911-1.3,2.911-2.909v-8.875
		c0-1.606-1.303-2.911-2.911-2.911l0,0c-1.606,0-2.908,1.305-2.908,2.911V97.517z"/>
</g>
<g>
	<path fill="#C9184A" d="M361.268,204.135c0,1.627,1.315,2.941,2.94,2.941l0,0c1.625,0,2.942-1.314,2.942-2.941v-41.523
		c0-1.625-1.317-2.94-2.942-2.94l0,0c-1.625,0-2.94,1.315-2.94,2.94V204.135z"/>
	<path fill="#C9184A" d="M353.137,211.062c0,1.624,1.316,2.942,2.942,2.942l0,0c1.622,0,2.94-1.319,2.94-2.942v-55.375
		c0-1.625-1.318-2.942-2.94-2.942l0,0c-1.626,0-2.942,1.317-2.942,2.942V211.062z"/>
	<path fill="#C9184A" d="M345.18,197.211c0,1.622,1.317,2.939,2.942,2.939l0,0c1.622,0,2.941-1.317,2.941-2.939v-27.673
		c0-1.625-1.319-2.94-2.941-2.94l0,0c-1.625,0-2.942,1.315-2.942,2.94V197.211z"/>
	<path fill="#C9184A" d="M337.157,201.364c0,1.626,1.317,2.941,2.942,2.941l0,0c1.626,0,2.941-1.314,2.941-2.941v-35.979
		c0-1.627-1.315-2.942-2.941-2.942l0,0c-1.625,0-2.942,1.315-2.942,2.942V201.364z"/>
	<path fill="#C9184A" d="M329.201,197.211c0,1.622,1.317,2.939,2.942,2.939l0,0c1.625,0,2.941-1.317,2.941-2.939v-27.673
		c0-1.625-1.316-2.94-2.941-2.94l0,0c-1.625,0-2.942,1.315-2.942,2.94V197.211z"/>
	<path fill="#C9184A" d="M377.355,197.211c0,1.622,1.317,2.939,2.942,2.939l0,0c1.622,0,2.941-1.317,2.941-2.939v-27.673
		c0-1.625-1.319-2.94-2.941-2.94l0,0c-1.625,0-2.942,1.315-2.942,2.94V197.211z"/>
	<path fill="#C9184A" d="M369.333,201.364c0,1.626,1.317,2.941,2.942,2.941l0,0c1.626,0,2.941-1.314,2.941-2.941v-35.979
		c0-1.627-1.315-2.942-2.941-2.942l0,0c-1.625,0-2.942,1.315-2.942,2.942V201.364z"/>
	<path fill="#C9184A" d="M361.377,197.211c0,1.622,1.317,2.939,2.942,2.939l0,0c1.625,0,2.941-1.317,2.941-2.939v-27.673
		c0-1.625-1.316-2.94-2.941-2.94l0,0c-1.625,0-2.942,1.315-2.942,2.94V197.211z"/>
	<path fill="#C9184A" d="M321.069,189.124c0,1.625,1.316,2.939,2.942,2.939l0,0c1.625,0,2.942-1.314,2.942-2.939v-11.5
		c0-1.624-1.317-2.941-2.942-2.941l0,0c-1.626,0-2.942,1.317-2.942,2.941V189.124z"/>
	<path fill="#C9184A" d="M385.449,189.124c0,1.625,1.316,2.939,2.942,2.939l0,0c1.625,0,2.942-1.314,2.942-2.939v-11.5
		c0-1.624-1.317-2.941-2.942-2.941l0,0c-1.626,0-2.942,1.317-2.942,2.941V189.124z"/>
</g>
<g>
	<path fill="#C9184A" d="M59.051,148.638c0,1.159,1.315,2.1,2.94,2.1l0,0c1.625,0,2.94-0.941,2.94-2.1v-29.661
		c0-1.162-1.315-2.102-2.94-2.102l0,0c-1.625,0-2.94,0.94-2.94,2.102V148.638z"/>
	<path fill="#C9184A" d="M50.917,152.635c0,1.105,1.317,2,2.941,2l0,0c1.625,0,2.942-0.895,2.942-2V114.98
		c0-1.106-1.317-2.002-2.942-2.002l0,0c-1.625,0-2.941,0.896-2.941,2.002V152.635z"/>
	<path fill="#C9184A" d="M42.962,145.264c0,1.346,1.317,2.435,2.941,2.435l0,0c1.625,0,2.94-1.089,2.94-2.435v-22.915
		c0-1.344-1.315-2.435-2.94-2.435l0,0c-1.625,0-2.941,1.091-2.941,2.435V145.264z"/>
	<g>
		<path fill="#C9184A" d="M75.179,147.988c0,1.624,1.316,2.939,2.942,2.939l0,0c1.623,0,2.94-1.315,2.94-2.939v-27.671
			c0-1.626-1.317-2.942-2.94-2.942l0,0c-1.626,0-2.942,1.316-2.942,2.942V147.988z"/>
		<path fill="#C9184A" d="M67.048,141.512c0,1.625,1.315,2.941,2.941,2.941l0,0c1.623,0,2.94-1.315,2.94-2.941v-14.721
			c0-1.625-1.317-2.942-2.94-2.942l0,0c-1.626,0-2.941,1.317-2.941,2.942V141.512z"/>
		<path fill="#C9184A" d="M88.724,115.815c0-1.625-1.315-2.939-2.941-2.939l0,0c-1.623,0-2.942,1.314-2.942,2.939v35.981
			c0,1.625,1.319,2.942,2.942,2.942l0,0c1.626,0,2.941-1.317,2.941-2.942V115.815z"/>
		<path fill="#C9184A" d="M96.68,119.969c0-1.622-1.315-2.939-2.94-2.939l0,0c-1.625,0-2.941,1.317-2.941,2.939v27.673
			c0,1.625,1.317,2.942,2.941,2.942l0,0c1.625,0,2.94-1.317,2.94-2.942V119.969z"/>
		<path fill="#C9184A" d="M104.812,129.667c0-1.625-1.317-2.941-2.942-2.941l0,0c-1.625,0-2.94,1.316-2.94,2.941v8.275
			c0,1.627,1.315,2.944,2.94,2.944l0,0c1.625,0,2.942-1.317,2.942-2.944V129.667z"/>
		<path fill="#C9184A" d="M112.767,133.821c0-1.622-1.315-2.939-2.94-2.939l0,0c-1.625,0-2.941,1.317-2.941,2.939v-0.031
			c0,1.625,1.317,2.94,2.941,2.94l0,0c1.625,0,2.94-1.315,2.94-2.94V133.821z"/>
	</g>
</g>
<g>
	<path fill="#E74B7A" d="M376.2,120.785c0,1.624,1.317,2.939,2.942,2.939l0,0c1.626,0,2.939-1.315,2.939-2.939v-8.974
		c0-1.624-1.313-2.94-2.939-2.94l0,0c-1.625,0-2.942,1.317-2.942,2.94V120.785z"/>
	<path fill="#E74B7A" d="M368.244,132.572c0,1.625,1.317,2.944,2.942,2.944l0,0c1.625,0,2.942-1.319,2.942-2.944v-30.244
		c0-1.625-1.317-2.942-2.942-2.942l0,0c-1.625,0-2.942,1.317-2.942,2.942V132.572z"/>
	<path fill="#E74B7A" d="M309.881,109.39c0-1.622-1.317-2.939-2.94-2.939l0,0c-1.625,0-2.941,1.317-2.941,2.939v13.817
		c0,1.625,1.316,2.942,2.941,2.942l0,0c1.623,0,2.94-1.317,2.94-2.942V109.39z"/>
	<path fill="#E74B7A" d="M317.837,105.234c0-1.625-1.316-2.942-2.942-2.942l0,0c-1.623,0-2.942,1.317-2.942,2.942v22.129
		c0,1.627,1.319,2.942,2.942,2.942l0,0c1.626,0,2.942-1.315,2.942-2.942V105.234z"/>
	<path fill="#E74B7A" d="M325.968,95.538c0-1.625-1.315-2.942-2.94-2.942l0,0c-1.625,0-2.942,1.317-2.942,2.942v41.523
		c0,1.624,1.317,2.941,2.942,2.941l0,0c1.625,0,2.94-1.317,2.94-2.941V95.538z"/>
	<path fill="#E74B7A" d="M341.945,89.997c0-1.625-1.317-2.944-2.939-2.944l0,0c-1.628,0-2.942,1.318-2.942,2.944v52.604
		c0,1.624,1.314,2.941,2.942,2.941l0,0c1.622,0,2.939-1.317,2.939-2.941V89.997z"/>
	<path fill="#E74B7A" d="M349.901,103.848c0-1.624-1.317-2.941-2.939-2.941l0,0c-1.625,0-2.941,1.317-2.941,2.941v28.124
		c0,1.624,1.316,2.939,2.941,2.939l0,0c1.622,0,2.939-1.316,2.939-2.939V103.848z"/>
	<path fill="#E74B7A" d="M358.034,105.687c0-1.627-1.317-2.942-2.942-2.942l0,0c-1.622,0-2.942,1.315-2.942,2.942v24.449
		c0,1.624,1.32,2.939,2.942,2.939l0,0c1.625,0,2.942-1.315,2.942-2.939V105.687z"/>
	<path fill="#E74B7A" d="M334.08,102.463c0-1.626-1.317-2.942-2.942-2.942l0,0c-1.622,0-2.942,1.316-2.942,2.942v27.671
		c0,1.624,1.32,2.939,2.942,2.939l0,0c1.625,0,2.942-1.315,2.942-2.939V102.463z"/>
	<path fill="#E74B7A" d="M365.988,99.261c0-1.627-1.315-2.944-2.94-2.944l0,0c-1.625,0-2.939,1.317-2.939,2.944v36.606
		c0,1.624,1.314,2.939,2.939,2.939l0,0c1.625,0,2.94-1.316,2.94-2.939V99.261z"/>
</g>
<g>
	<path fill="#9F86C0" d="M317.677,83.151c0,1.333,1.075,2.41,2.406,2.41l0,0c1.332,0,2.41-1.077,2.41-2.41V76.38
		c0-1.33-1.078-2.408-2.41-2.408l0,0c-1.331,0-2.406,1.079-2.406,2.408V83.151z"/>
	<path fill="#9F86C0" d="M324.547,79.407c0,1.33,1.077,2.406,2.407,2.406l0,0c1.328,0,2.406-1.077,2.406-2.406v0.026
		c0-1.331-1.078-2.408-2.406-2.408l0,0c-1.33,0-2.407,1.077-2.407,2.408V79.407z"/>
	<g>
		<path fill="#9F86C0" d="M301.318,86.674c0,1.626,1.316,2.944,2.942,2.944l0,0c1.623,0,2.94-1.317,2.94-2.944V72.857
			c0-1.624-1.317-2.942-2.94-2.942l0,0c-1.626,0-2.942,1.318-2.942,2.942V86.674z"/>
		<path fill="#9F86C0" d="M293.912,83.561c0,1.624,1.316,2.941,2.938,2.941l0,0c1.629,0,2.942-1.317,2.942-2.941v-8.278
			c0-1.624-1.313-2.942-2.942-2.942l0,0c-1.622,0-2.938,1.318-2.938,2.942V83.561z"/>
		<path fill="#9F86C0" d="M309.272,83.561c0,1.624,1.315,2.941,2.941,2.941l0,0c1.625,0,2.942-1.317,2.942-2.941v-8.278
			c0-1.624-1.317-2.942-2.942-2.942l0,0c-1.626,0-2.941,1.318-2.941,2.942V83.561z"/>
		<path fill="#9F86C0" d="M286.207,92.216c0,1.625,1.313,2.942,2.939,2.942l0,0c1.625,0,2.942-1.317,2.942-2.942v-24.9
			c0-1.625-1.317-2.942-2.942-2.942l0,0c-1.626,0-2.939,1.317-2.939,2.942V92.216z"/>
		<path fill="#9F86C0" d="M278.073,93.603c0,1.624,1.318,2.941,2.94,2.941l0,0c1.625,0,2.942-1.317,2.942-2.941V65.932
			c0-1.625-1.317-2.941-2.942-2.941l0,0c-1.622,0-2.94,1.315-2.94,2.941V93.603z"/>
		<path fill="#9F86C0" d="M270.118,88.752c0,1.627,1.314,2.944,2.939,2.944l0,0c1.625,0,2.942-1.317,2.942-2.944v-17.28
			c0-1.624-1.317-2.939-2.942-2.939l0,0c-1.625,0-2.939,1.315-2.939,2.939V88.752z"/>
		<path fill="#9F86C0" d="M261.866,83.905c0,1.627,1.317,2.941,2.942,2.941l0,0c1.622,0,2.939-1.314,2.939-2.941v-8.97
			c0-1.624-1.317-2.941-2.939-2.941l0,0c-1.625,0-2.942,1.317-2.942,2.941V83.905z"/>
	</g>
</g>
<g>
	<path fill="#C9184A" d="M251.837,56.986c0,1.624,1.317,2.939,2.942,2.939l0,0c1.622,0,2.94-1.315,2.94-2.939v-8.973
		c0-1.624-1.318-2.939-2.94-2.939l0,0c-1.625,0-2.942,1.315-2.942,2.939V56.986z"/>
	<path fill="#C9184A" d="M267.748,57.334c0,1.624,1.317,2.939,2.942,2.939l0,0c1.622,0,2.94-1.315,2.94-2.939V48.36
		c0-1.624-1.318-2.939-2.94-2.939l0,0c-1.625,0-2.942,1.315-2.942,2.939V57.334z"/>
	<path fill="#C9184A" d="M235.828,73.608c0,1.624,1.317,2.941,2.939,2.941l0,0c1.628,0,2.944-1.317,2.944-2.941V32.085
		c0-1.624-1.316-2.941-2.944-2.941l0,0c-1.622,0-2.939,1.317-2.939,2.941V73.608z"/>
	<path fill="#C9184A" d="M227.797,66.681c0,1.625,1.315,2.944,2.94,2.944l0,0c1.625,0,2.942-1.318,2.942-2.944V39.012
		c0-1.625-1.317-2.942-2.942-2.942l0,0c-1.625,0-2.94,1.317-2.94,2.942V66.681z"/>
	<path fill="#C9184A" d="M219.772,63.912c0,1.625,1.32,2.942,2.945,2.942l0,0c1.622,0,2.939-1.317,2.939-2.942V41.783
		c0-1.625-1.317-2.944-2.939-2.944l0,0c-1.625,0-2.945,1.319-2.945,2.944V63.912z"/>
	<path fill="#C9184A" d="M211.819,59.756c0,1.625,1.317,2.942,2.94,2.942l0,0c1.624,0,2.941-1.317,2.941-2.942V45.937
		c0-1.625-1.317-2.942-2.941-2.942l0,0c-1.623,0-2.94,1.317-2.94,2.942V59.756z"/>
	<path fill="#C9184A" d="M259.689,59.409c0,1.625,1.317,2.942,2.94,2.942l0,0c1.624,0,2.941-1.317,2.941-2.942V45.59
		c0-1.625-1.317-2.942-2.941-2.942l0,0c-1.623,0-2.94,1.317-2.94,2.942V59.409z"/>
	<path fill="#C9184A" d="M243.921,59.756c0,1.625,1.317,2.942,2.941,2.942l0,0c1.623,0,2.94-1.317,2.94-2.942V45.937
		c0-1.625-1.317-2.942-2.94-2.942l0,0c-1.624,0-2.941,1.317-2.941,2.942V59.756z"/>
	<path fill="#C9184A" d="M203.688,56.986c0,1.624,1.315,2.939,2.938,2.939l0,0c1.628,0,2.942-1.315,2.942-2.939v-8.278
		c0-1.624-1.314-2.941-2.942-2.941l0,0c-1.623,0-2.938,1.317-2.938,2.941V56.986z"/>
</g>
</svg>
