<?xml version="1.0" encoding="utf-8"?>
<!-- Generator: Adobe Illustrator 16.0.0, SVG Export Plug-In . SVG Version: 6.00 Build 0)  -->
<!DOCTYPE svg PUBLIC "-//W3C//DTD SVG 1.1//EN" "http://www.w3.org/Graphics/SVG/1.1/DTD/svg11.dtd">
<svg version="1.1" id="Layer_1" xmlns="http://www.w3.org/2000/svg" xmlns:xlink="http://www.w3.org/1999/xlink" x="0px" y="0px"
	 width="216px" height="108px" viewBox="0 0 216 108" enable-background="new 0 0 216 108" xml:space="preserve">
<rect x="-2.364" y="-1.667" fill="#1B2021" width="220.475" height="110.34"/>
<g>
	<polygon fill="#FFFFFF" points="50.746,83.823 44.452,83.823 44.452,80.211 46.729,80.211 46.729,53.616 47.689,53.616 
		47.689,81.17 45.411,81.17 45.411,82.864 49.786,82.864 49.786,50.175 45.066,50.175 45.066,78.103 40.073,83.459 21.733,83.459 
		13.522,75.249 13.522,57.681 21.733,49.471 40.092,49.471 42.712,52.658 41.971,53.268 39.638,50.43 22.131,50.43 14.482,58.078 
		14.482,74.852 22.131,82.5 39.656,82.5 44.107,77.724 44.107,49.216 50.746,49.216 	"/>
</g>
<g>
	<polygon fill="#FFFFFF" points="37.02,77.99 24.833,77.99 19.068,72.226 19.068,60.576 24.543,55.102 36.866,55.102 39.532,57.769 
		38.854,58.447 36.468,56.061 24.941,56.061 20.027,60.974 20.027,71.828 25.23,77.031 36.619,77.031 41.862,71.736 41.862,52.701 
		42.821,52.701 42.821,72.132 	"/>
</g>
<g>
	<polygon fill="#FFFFFF" points="38.631,80.87 23.129,80.87 16.036,73.775 16.036,59.28 23.188,52.131 38.506,52.131 38.506,53.09 
		23.585,53.09 16.995,59.678 16.995,73.379 23.526,79.91 38.234,79.91 40.063,78.088 40.741,78.769 	"/>
</g>
<g>
	<polygon fill="#FFFFFF" points="65.529,85.059 58.956,78.484 58.956,55.342 55.174,51.603 55.849,50.92 59.916,54.941 
		59.916,78.087 65.479,83.651 67,81.898 62.079,76.979 62.079,54.44 56.676,49.216 62.761,49.216 66.085,52.62 66.085,75.104 
		68.799,77.951 68.104,78.612 65.126,75.487 65.126,53.01 62.357,50.175 59.048,50.175 63.039,54.034 63.039,76.582 68.31,81.852 	
		"/>
</g>
<g>
	<polygon fill="#FFFFFF" points="65.926,57.741 65.286,57.027 71.143,51.776 84.443,51.774 84.443,52.733 71.51,52.736 	"/>
</g>
<g>
	<polygon fill="#FFFFFF" points="65.833,62.504 65.176,61.803 72.03,55.393 85.427,55.393 88.496,57.395 88.496,50.919 
		86.766,49.872 70.107,49.872 65.903,53.191 65.308,52.438 69.773,48.913 87.034,48.913 89.456,50.378 89.456,59.165 85.142,56.353 
		72.409,56.353 	"/>
</g>
<g>
	<g>
		<polygon fill="#FFFFFF" points="121.468,83.835 100.678,83.835 92.259,75.516 92.235,22.109 93.195,22.109 93.219,75.115 
			101.072,82.875 121.066,82.875 128.139,75.708 128.139,57.082 120.968,49.817 102.884,49.817 99.464,52.098 99.464,26.741 
			100.424,26.741 100.424,50.305 102.593,48.858 121.368,48.858 129.099,56.688 129.099,76.102 		"/>
	</g>
	<g>
		<polygon fill="#FFFFFF" points="120.096,80.697 102.449,80.697 95.886,74.443 95.887,24.365 96.846,24.365 96.846,74.032 
			102.833,79.738 119.693,79.738 125.002,74.334 125.099,58.558 119.404,53.027 104.598,53.027 101.343,55.174 100.814,54.372 
			104.31,52.068 119.794,52.068 126.061,58.155 125.96,74.729 		"/>
	</g>
	<g>
		<path fill="#FFFFFF" d="M117.739,77.952H105.36l-5.725-5.569V59.368l5.833-4.432h12.271l5.062,5.059v12.897L117.739,77.952z
			 M105.75,76.992h11.592l4.499-4.497V60.393l-4.499-4.497h-11.551l-5.196,3.949v12.133L105.75,76.992z"/>
	</g>
</g>
<g>
	<polygon fill="#FFFFFF" points="179.321,85.059 172.745,78.484 172.745,55.344 168.955,51.641 169.626,50.955 173.705,54.939 
		173.705,78.087 179.271,83.651 180.788,81.898 175.868,76.979 175.868,54.44 170.466,49.216 176.551,49.216 179.874,52.62 
		179.874,75.104 182.506,77.879 181.811,78.539 178.915,75.486 178.915,53.01 176.146,50.175 172.839,50.175 176.828,54.034 
		176.828,76.582 182.098,81.852 	"/>
</g>
<g>
	<polygon fill="#FFFFFF" points="179.715,57.741 179.074,57.027 184.934,51.776 198.333,51.811 198.331,52.771 185.299,52.737 	"/>
</g>
<g>
	<polygon fill="#FFFFFF" points="179.624,62.504 178.968,61.803 185.818,55.393 199.217,55.393 202.285,57.395 202.285,50.919 
		200.555,49.872 183.896,49.872 179.691,53.191 179.098,52.438 183.563,48.913 200.823,48.913 203.245,50.378 203.245,59.165 
		198.932,56.353 186.197,56.353 	"/>
</g>
<g>
	<path fill="#FFFFFF" d="M159.676,83.626h-18.707l-8.478-8.477V57.204l8.478-8.478h18.71l7.713,7.715v19.468L159.676,83.626z
		 M141.366,82.666h17.912l7.154-7.154V56.839l-7.151-7.153h-17.915l-7.915,7.916v17.15L141.366,82.666z M156.349,77.703h-12.315
		l-5.618-5.618V60.267l5.618-5.617h12.315l5.118,5.12v12.812L156.349,77.703z M144.431,76.743h11.521l4.556-4.559V60.167
		l-4.556-4.558h-11.521l-5.056,5.055v11.023L144.431,76.743z"/>
</g>
<g>
	<polygon fill="#FFFFFF" points="158.068,80.521 142.621,80.521 135.223,73.495 135.223,58.747 136.28,57.75 136.938,58.447 
		136.183,59.161 136.183,73.083 143.003,79.562 157.646,79.562 163.183,73.537 163.183,58.081 158.126,52.801 142.984,52.801 
		141.951,53.653 141.34,52.913 142.64,51.841 158.536,51.841 164.142,57.695 164.142,73.911 	"/>
</g>
<g>
	<g>
		<path fill="#FFFFFF" d="M100.02,53.517c-0.821,0-1.485,0.666-1.485,1.486c0,0.82,0.664,1.485,1.485,1.485
			c0.82,0,1.486-0.665,1.486-1.485C101.505,54.182,100.839,53.517,100.02,53.517z M100.021,55.871c-0.479,0-0.869-0.391-0.869-0.867
			c0-0.48,0.39-0.869,0.869-0.869c0.48,0,0.868,0.389,0.868,0.869C100.889,55.48,100.501,55.871,100.021,55.871z"/>
	</g>
</g>
<g>
	<g>
		<path fill="#FFFFFF" d="M100.17,24.044c-0.82,0-1.485,0.666-1.485,1.486c0,0.821,0.666,1.486,1.485,1.486
			c0.822,0,1.487-0.665,1.487-1.486C101.657,24.71,100.993,24.044,100.17,24.044z M100.156,26.399c-0.48,0-0.869-0.389-0.869-0.869
			c0-0.479,0.389-0.868,0.869-0.868c0.479,0,0.868,0.389,0.868,0.868C101.023,26.01,100.635,26.399,100.156,26.399z"/>
	</g>
</g>
<g>
	<g>
		<path fill="#FFFFFF" d="M96.435,21.757c-0.821,0-1.486,0.665-1.486,1.486c0,0.821,0.665,1.484,1.486,1.484
			c0.82,0,1.484-0.663,1.484-1.484C97.919,22.422,97.254,21.757,96.435,21.757z M96.417,24.112c-0.479,0-0.869-0.388-0.869-0.868
			c0-0.481,0.389-0.869,0.869-0.869c0.48,0,0.868,0.388,0.868,0.869C97.285,23.724,96.898,24.112,96.417,24.112z"/>
	</g>
</g>
<g>
	<g>
		<path fill="#FFFFFF" d="M92.882,19.478c-0.821,0-1.485,0.666-1.485,1.486c0,0.82,0.665,1.486,1.485,1.486s1.486-0.666,1.486-1.486
			C94.368,20.144,93.703,19.478,92.882,19.478z M92.867,21.833c-0.48,0-0.871-0.389-0.871-0.869c0-0.478,0.39-0.868,0.871-0.868
			c0.479,0,0.867,0.39,0.867,0.868C93.734,21.444,93.346,21.833,92.867,21.833z"/>
	</g>
</g>
<g>
	<g>
		<path fill="#FFFFFF" d="M137.494,55.893c-0.821,0-1.486,0.666-1.486,1.487c0,0.82,0.665,1.485,1.486,1.485
			c0.819,0,1.484-0.665,1.484-1.485C138.979,56.559,138.313,55.893,137.494,55.893z M137.494,58.249
			c-0.478,0-0.868-0.389-0.868-0.867c0-0.479,0.391-0.868,0.868-0.868c0.479,0,0.87,0.389,0.87,0.868
			C138.364,57.86,137.974,58.249,137.494,58.249z"/>
	</g>
</g>
<g>
	<g>
		<path fill="#FFFFFF" d="M140.68,52.321c-0.821,0-1.485,0.667-1.485,1.487c0,0.82,0.664,1.486,1.485,1.486
			c0.819,0,1.483-0.666,1.483-1.486C142.163,52.987,141.499,52.321,140.68,52.321z M140.68,54.678c-0.479,0-0.869-0.39-0.869-0.867
			c0-0.482,0.39-0.87,0.869-0.87c0.48,0,0.868,0.388,0.868,0.87C141.548,54.288,141.16,54.678,140.68,54.678z"/>
	</g>
</g>
<g>
	<g>
		<path fill="#FFFFFF" d="M168.399,49.161c-0.82,0-1.484,0.666-1.484,1.487c0,0.819,0.664,1.484,1.484,1.484
			s1.486-0.666,1.486-1.484C169.886,49.827,169.22,49.161,168.399,49.161z M168.399,51.518c-0.479,0-0.868-0.39-0.868-0.87
			c0-0.48,0.389-0.868,0.868-0.868c0.48,0,0.868,0.388,0.868,0.868C169.268,51.128,168.88,51.518,168.399,51.518z"/>
	</g>
</g>
<g>
	<g>
		<path fill="#FFFFFF" d="M199.347,51.213c-0.818,0-1.484,0.667-1.484,1.487c0,0.82,0.666,1.487,1.484,1.487
			c0.822,0,1.488-0.667,1.488-1.487C200.835,51.88,200.169,51.213,199.347,51.213z M199.347,53.569
			c-0.478,0-0.868-0.389-0.868-0.868c0-0.481,0.391-0.868,0.868-0.868c0.481,0,0.87,0.387,0.87,0.868
			C200.217,53.18,199.828,53.569,199.347,53.569z"/>
	</g>
</g>
<g>
	<g>
		<path fill="#FFFFFF" d="M182.955,77.511c-0.821,0-1.486,0.666-1.486,1.486c0,0.821,0.665,1.487,1.486,1.487
			c0.82,0,1.487-0.666,1.487-1.487C184.442,78.177,183.775,77.511,182.955,77.511z M182.955,79.864c-0.479,0-0.87-0.388-0.87-0.867
			s0.392-0.868,0.87-0.868c0.48,0,0.869,0.389,0.869,0.868S183.436,79.864,182.955,79.864z"/>
	</g>
</g>
<g>
	<g>
		<path fill="#FFFFFF" d="M85.558,51.124c-0.82,0-1.485,0.665-1.485,1.487c0,0.818,0.665,1.486,1.485,1.486s1.487-0.668,1.487-1.486
			C87.045,51.789,86.378,51.124,85.558,51.124z M85.558,53.479c-0.479,0-0.868-0.391-0.868-0.869c0-0.479,0.389-0.869,0.868-0.869
			c0.481,0,0.869,0.39,0.869,0.869C86.427,53.088,86.039,53.479,85.558,53.479z"/>
	</g>
</g>
<g>
	<g>
		<path fill="#FFFFFF" d="M69.166,77.511c-0.822,0-1.486,0.666-1.486,1.486c0,0.821,0.665,1.487,1.486,1.487
			c0.821,0,1.486-0.666,1.486-1.487C70.652,78.177,69.986,77.511,69.166,77.511z M69.166,79.864c-0.479,0-0.868-0.388-0.868-0.867
			s0.389-0.868,0.868-0.868s0.868,0.389,0.868,0.868S69.645,79.864,69.166,79.864z"/>
	</g>
</g>
<g>
	<g>
		<path fill="#FFFFFF" d="M54.609,49.161c-0.821,0-1.486,0.666-1.486,1.487c0,0.819,0.665,1.484,1.486,1.484
			s1.486-0.666,1.486-1.484C56.095,49.827,55.431,49.161,54.609,49.161z M54.609,51.515c-0.479,0-0.868-0.388-0.868-0.867
			c0-0.481,0.389-0.87,0.868-0.87c0.48,0,0.869,0.389,0.869,0.87C55.479,51.127,55.09,51.515,54.609,51.515z"/>
	</g>
</g>
<g>
	<g>
		<path fill="#FFFFFF" d="M47.565,51.213c-0.822,0-1.486,0.667-1.486,1.487c0,0.82,0.664,1.487,1.486,1.487
			c0.82,0,1.485-0.667,1.485-1.487C49.05,51.88,48.385,51.213,47.565,51.213z M47.565,53.569c-0.48,0-0.869-0.389-0.869-0.868
			c0-0.481,0.389-0.868,0.869-0.868s0.867,0.387,0.867,0.868C48.432,53.18,48.045,53.569,47.565,53.569z"/>
	</g>
</g>
<g>
	<g>
		<path fill="#FFFFFF" d="M41.159,76.026c-0.821,0-1.485,0.665-1.485,1.485s0.664,1.485,1.485,1.485
			c0.821,0,1.486-0.665,1.486-1.485S41.979,76.026,41.159,76.026z M41.159,78.381c-0.479,0-0.868-0.39-0.868-0.869
			c0-0.479,0.39-0.868,0.868-0.868c0.48,0,0.869,0.39,0.869,0.868C42.027,77.991,41.639,78.381,41.159,78.381z"/>
	</g>
</g>
<g>
	<g>
		<path fill="#FFFFFF" d="M38.506,57.503c-0.822,0-1.486,0.667-1.486,1.487c0,0.819,0.664,1.485,1.486,1.485
			c0.82,0,1.485-0.666,1.485-1.485C39.991,58.17,39.326,57.503,38.506,57.503z M38.506,59.857c-0.48,0-0.869-0.388-0.869-0.867
			s0.388-0.868,0.869-0.868c0.479,0,0.868,0.389,0.868,0.868S38.985,59.857,38.506,59.857z"/>
	</g>
</g>
<g>
	<g>
		<path fill="#FFFFFF" d="M38.769,52.207c-0.822,0-1.485,0.667-1.485,1.486c0,0.821,0.664,1.487,1.485,1.487
			c0.82,0,1.486-0.666,1.486-1.487C40.254,52.874,39.589,52.207,38.769,52.207z M38.768,54.562c-0.479,0-0.868-0.389-0.868-0.869
			c0-0.479,0.388-0.868,0.868-0.868c0.48,0,0.869,0.389,0.869,0.868C39.636,54.173,39.248,54.562,38.768,54.562z"/>
	</g>
</g>
</svg>
