<?xml version="1.0" encoding="utf-8"?>
<!-- Generator: Adobe Illustrator 16.0.0, SVG Export Plug-In . SVG Version: 6.00 Build 0)  -->
<!DOCTYPE svg PUBLIC "-//W3C//DTD SVG 1.1//EN" "http://www.w3.org/Graphics/SVG/1.1/DTD/svg11.dtd">
<svg version="1.1" id="Layer_1" xmlns="http://www.w3.org/2000/svg" xmlns:xlink="http://www.w3.org/1999/xlink" x="0px" y="0px"
	 width="72px" height="72px" viewBox="0 0 72 72" enable-background="new 0 0 72 72" xml:space="preserve">
<g>
	<rect fill="#1B2021" width="72" height="72"/>
</g>
<g>
	<g>
		<path fill="#FFFFFF" stroke="#231F20" stroke-miterlimit="10" d="M35.444,53.929"/>
	</g>
</g>
<g>
	<g>
		<polyline fill="#FFFFFF" points="35.567,53.403 38.048,50.784 37.983,47.887 41.559,43.651 41.515,33.725 38.561,30.154 
			45.939,24.331 45.939,20.953 45.69,20.953 45.69,24.212 38.205,30.12 41.268,33.816 41.311,43.557 37.733,47.793 37.798,50.684 
			35.318,53.304 		"/>
	</g>
	<g>
		<polyline fill="#FFFFFF" points="33.407,52.413 35.82,50.028 35.811,47.129 39.534,42.805 39.508,34.047 36.124,30.054 
			43.96,23.576 43.956,19.679 43.707,19.679 43.712,23.459 35.771,30.023 39.258,34.138 39.286,42.712 35.562,47.035 35.571,49.925 
			33.158,52.307 		"/>
	</g>
</g>
<g>
	<g>
		<polyline fill="#FFFFFF" points="34.444,53.022 36.874,50.611 36.874,47.503 40.511,43.342 40.481,33.961 37.331,30.095 
			44.985,23.945 44.975,20.297 44.727,20.298 44.735,23.826 36.981,30.058 40.233,34.05 40.262,43.248 36.624,47.409 36.624,50.516 
			34.195,52.926 		"/>
	</g>
</g>
<g>
	<g>
		<polygon fill="#FFFFFF" points="32.366,54.451 32.35,51.907 34.821,49.65 34.812,46.688 38.592,42.226 38.561,34.225 
			35.058,30.039 43.129,23.414 42.972,23.22 34.705,30.006 38.312,34.318 38.344,42.135 34.563,46.596 34.572,49.542 32.1,51.797 
			32.118,54.55 		"/>
	</g>
</g>
<g>
	<g>
		<polygon fill="#FFFFFF" points="41.489,40.009 48.392,34.509 48.391,30.197 52.341,26.631 52.142,26.468 48.141,30.075 
			48.141,34.39 41.334,39.815 		"/>
	</g>
</g>
<g>
	<g>
		<polygon fill="#FFFFFF" points="41.483,38.579 47.388,33.981 47.373,29.722 51.373,26.215 51.221,26.027 47.125,29.601 
			47.138,33.86 41.33,38.383 		"/>
	</g>
</g>
<g>
	<g>
		<polygon fill="#FFFFFF" points="41.479,37.335 46.411,33.508 46.397,29.235 50.302,25.71 50.131,25.515 46.147,29.119 
			46.162,33.387 41.326,37.138 		"/>
	</g>
</g>
<g>
	<g>
		<polygon fill="#FFFFFF" points="41.409,36.423 46.246,32.803 46.266,32.494 41.308,36.188 		"/>
	</g>
</g>
<g>
	<g>
		<polygon fill="#FFFFFF" points="31.685,33.083 31.933,33.239 31.907,24.738 31.658,24.739 		"/>
	</g>
</g>
<g>
	<g>
		<polygon fill="#FFFFFF" points="31.259,25.305 31.283,32.489 31.032,32.402 31.009,25.18 33.648,23.02 33.802,23.215 		"/>
	</g>
</g>
<g>
	<g>
		<polygon fill="#FFFFFF" points="37.498,20.207 37.489,16.464 37.738,16.463 37.748,20.332 35.589,21.948 35.435,21.752 		"/>
	</g>
</g>
<g>
	<g>
		<polygon fill="#FFFFFF" points="30.623,24.768 30.644,31.78 30.396,31.658 30.374,24.643 33.154,22.391 33.309,22.587 		"/>
	</g>
</g>
<g>
	<g>
		<polygon fill="#FFFFFF" points="36.626,19.88 36.622,16.084 36.871,16.084 36.875,20.004 35.1,21.324 34.946,21.128 		"/>
	</g>
</g>
<g>
	<g>
		<polygon fill="#FFFFFF" points="35.92,19.548 35.917,15.577 36.165,15.576 36.169,19.674 34.666,20.771 34.512,20.575 		"/>
	</g>
</g>
<g>
	<g>
		<polygon fill="#FFFFFF" points="32.709,21.822 32.863,22.018 29.85,24.398 29.871,30.913 29.621,30.751 29.6,24.271 		"/>
	</g>
</g>
<g>
	<g>
		<g>
			<polygon fill="#FFFFFF" points="20.495,27.394 23.292,30.855 23.292,34.34 24.515,35.92 29.63,35.906 31.657,37.864 
				31.658,38.212 29.53,36.155 24.396,36.17 23.044,34.427 23.044,30.945 20.304,27.553 			"/>
		</g>
	</g>
</g>
<g>
	<g>
		<polygon fill="#FFFFFF" points="39.13,26.41 39.322,26.254 31.855,17.011 30.162,17.011 30.163,17.261 31.736,17.261 		"/>
	</g>
</g>
<g>
	<g>
		<polygon fill="#FFFFFF" points="38.418,27.014 38.613,26.86 31.472,17.755 30.138,17.751 30.139,18 31.351,18.004 		"/>
	</g>
</g>
<g>
	<g>
		<polygon fill="#FFFFFF" points="37.88,27.488 38.076,27.337 31.118,18.324 30.162,18.329 30.163,18.578 30.997,18.573 		"/>
	</g>
</g>
<g>
	<g>
		<polygon fill="#FFFFFF" points="37.355,27.916 37.552,27.762 32.604,21.429 32.356,21.515 32.382,21.549 		"/>
	</g>
</g>
<g>
	<g>
		<polygon fill="#FFFFFF" points="35.643,45.443 35.826,45.274 33.335,42.606 33.473,34.862 28.197,28.988 28.177,25.527 
			25.435,22.035 22.261,22.04 22.262,22.289 25.313,22.284 27.928,25.611 27.947,29.08 33.223,34.953 33.084,42.704 		"/>
	</g>
</g>
<g>
	<g>
		<polygon fill="#FFFFFF" points="35.001,46.201 35.184,46.03 32.456,43.065 32.582,35.308 32.55,35.271 27.243,29.349 27.243,25.7 
			24.955,22.818 20.958,22.828 20.959,23.076 24.833,23.067 26.992,25.782 26.991,29.439 32.331,35.399 32.205,43.161 		"/>
	</g>
</g>
<g>
	<g>
		<polygon fill="#FFFFFF" points="34.592,47.243 34.783,47.084 31.762,43.526 31.869,35.802 26.366,29.565 26.354,25.756 
			24.583,23.483 19.703,23.495 19.704,23.744 24.462,23.732 26.105,25.842 26.118,29.659 31.619,35.895 31.512,43.616 
			31.541,43.651 		"/>
	</g>
</g>
<g>
	<g>
		<polygon fill="#FFFFFF" points="31.537,39.227 31.708,39.044 29.256,36.792 24.203,36.768 22.276,34.479 22.265,31.163 
			19.888,28.165 17.204,28.17 17.204,28.419 19.769,28.414 22.017,31.25 22.027,34.564 24.081,37.017 29.158,37.041 		"/>
	</g>
</g>
<g>
	<g>
		<polygon fill="#FFFFFF" points="31.542,40.39 31.71,40.205 28.804,37.568 23.619,37.604 21.446,34.893 21.457,31.541 
			19.369,28.837 17.203,28.837 17.204,29.085 19.247,29.086 21.207,31.625 21.197,34.977 23.496,37.853 28.708,37.817 		"/>
	</g>
</g>
<g>
	<g>
		
			<rect x="29.55" y="36.841" transform="matrix(-0.6771 0.7359 -0.7359 -0.6771 78.8379 44.4173)" fill="#FFFFFF" width="0.249" height="5.327"/>
	</g>
</g>
<g>
	<g>
		<polygon fill="#FFFFFF" points="34.34,49.936 34.532,49.778 33.756,48.83 33.751,47.337 30.956,43.984 30.945,40.563 
			30.696,40.564 30.708,44.077 33.502,47.426 33.507,48.92 		"/>
	</g>
</g>
<g>
	<g>
		<rect x="30.682" y="34.781" fill="#FFFFFF" width="0.249" height="2.438"/>
	</g>
</g>
<g>
	<g>
		<polygon fill="#FFFFFF" points="32.454,34.017 32.703,34.016 32.691,31.15 32.443,31.229 		"/>
	</g>
</g>
<g>
	<g>
		<polyline fill="#FFFFFF" points="37.474,39.964 37.485,43.193 37.733,43.192 37.725,40.068 		"/>
	</g>
</g>
<g>
	<g>
		
			<rect x="47.317" y="35.065" transform="matrix(-1 0.0028 -0.0028 -1 100.147 70.2389)" fill="#FFFFFF" width="5.415" height="0.25"/>
	</g>
</g>
<g>
	<g>
		
			<rect x="46.511" y="35.71" transform="matrix(-1 0.0022 -0.0022 -1 99.3006 71.5604)" fill="#FFFFFF" width="6.199" height="0.249"/>
	</g>
</g>
<g>
	<g>
		
			<rect x="45.487" y="36.539" transform="matrix(-1 9.450037e-04 -9.450037e-04 -1 99.2768 73.2802)" fill="#FFFFFF" width="8.268" height="0.249"/>
	</g>
</g>
<g>
	<g>
		<polygon fill="#FFFFFF" points="25.735,36.178 25.932,36.025 24.209,33.86 24.013,34.014 		"/>
	</g>
</g>
<g>
	<g>
		<polyline fill="#FFFFFF" points="15.616,33.319 21.236,33.299 21.235,33.051 15.605,33.07 		"/>
	</g>
</g>
<g>
	<g>
		<polyline fill="#FFFFFF" points="15.606,34.054 21.237,34.035 21.236,33.786 15.604,33.805 		"/>
	</g>
</g>
<g>
	<g>
		<polyline fill="#FFFFFF" points="16.797,34.943 21.241,34.926 21.24,34.677 16.797,34.694 		"/>
	</g>
</g>
<g>
	<g>
		
			<rect x="28.524" y="36.794" transform="matrix(-0.7022 0.712 -0.712 -0.7022 77.1402 47.4388)" fill="#FFFFFF" width="0.248" height="6.119"/>
	</g>
</g>
<g>
	<g>
		<path fill="#FFFFFF" stroke="#231F20" stroke-miterlimit="10" d="M26.302,35.917"/>
	</g>
</g>
<g>
	<g>
		
			<rect x="18.532" y="27.411" transform="matrix(-1 0.0058 -0.0058 -1 39.1634 54.958)" fill="#FFFFFF" width="1.941" height="0.249"/>
	</g>
</g>
<g>
	<circle fill="#FFFFFF" cx="46.493" cy="39.004" r="0.48"/>
</g>
<g>
	<circle fill="#FFFFFF" cx="42.911" cy="23.02" r="0.481"/>
</g>
<g>
	<circle fill="#FFFFFF" cx="39.288" cy="21.263" r="0.481"/>
</g>
<g>
	<circle fill="#FFFFFF" cx="32.925" cy="31.273" r="0.481"/>
</g>
<g>
	<circle fill="#FFFFFF" cx="42.607" cy="30.591" r="0.481"/>
</g>
<g>
	<circle fill="#FFFFFF" cx="29.524" cy="21.554" r="0.481"/>
</g>
<g>
	<circle fill="#FFFFFF" cx="24.39" cy="33.736" r="0.481"/>
</g>
<g>
	<circle fill="#FFFFFF" cx="22.369" cy="39.965" r="0.481"/>
</g>
<g>
	<circle fill="#FFFFFF" cx="32.233" cy="54.477" r="0.481"/>
</g>
<g>
	<circle fill="#FFFFFF" cx="37.604" cy="40.01" r="0.481"/>
</g>
<g>
	<circle fill="#FFFFFF" cx="36.331" cy="41.712" r="0.481"/>
</g>
<g>
	<g>
		<rect x="36.427" y="41.712" fill="#FFFFFF" width="0.329" height="2.669"/>
	</g>
</g>
<g>
	<polygon fill="#FFFFFF" points="43.939,34.471 43.679,34.471 43.679,31.847 42.515,30.683 42.699,30.499 43.939,31.74 	"/>
</g>
<g>
	<rect x="29.6" y="21.423" fill="#FFFFFF" width="3.004" height="0.261"/>
</g>
<g>
	<rect x="22.368" y="39.879" fill="#FFFFFF" width="6.366" height="0.261"/>
</g>
<g>
	<polygon fill="#FFFFFF" points="40.898,24.922 39.158,22.82 39.158,21.263 39.419,21.263 39.419,22.727 41.1,24.756 	"/>
</g>
<g>
	<polygon fill="#FFFFFF" points="41.511,41.277 41.35,41.075 44.143,38.874 46.338,38.874 46.338,39.135 44.232,39.135 	"/>
</g>
<g>
	<circle cx="29.525" cy="21.566" r="0.248"/>
</g>
<g>
	<circle cx="32.925" cy="31.273" r="0.248"/>
</g>
<g>
	<circle cx="42.607" cy="30.591" r="0.249"/>
</g>
<g>
	<circle cx="42.911" cy="23.02" r="0.249"/>
</g>
<g>
	<circle cx="24.39" cy="33.736" r="0.248"/>
</g>
<g>
	<circle cx="22.368" cy="40.01" r="0.248"/>
</g>
<g>
	<circle cx="36.331" cy="41.712" r="0.249"/>
</g>
<g>
	<circle cx="32.234" cy="54.477" r="0.248"/>
</g>
<g>
	<circle fill="#FFFFFF" cx="35.636" cy="37.017" r="0.481"/>
</g>
<g>
	<circle cx="35.636" cy="37.017" r="0.248"/>
</g>
<g>
	<circle cx="37.614" cy="40.01" r="0.248"/>
</g>
<g>
	<circle cx="46.494" cy="39.005" r="0.248"/>
</g>
<g>
	<circle cx="39.288" cy="21.263" r="0.248"/>
</g>
<g>
	<polygon fill="#FFFFFF" points="34.221,43.6 33.96,43.6 33.96,38.874 35.544,37.289 35.729,37.474 34.221,38.981 	"/>
</g>
<g>
	<line fill="#FFFFFF" x1="34.173" y1="52.945" x2="34.454" y2="52.945"/>
</g>
<g>
	<g>
		<line fill="#FFFFFF" x1="35.547" y1="53.323" x2="35.296" y2="53.323"/>
	</g>
</g>
<g>
	<g>
		<path fill="#E74B7A" d="M15.503,36.305c0,0.263,0.215,0.478,0.479,0.478l0,0c0.264,0,0.478-0.214,0.478-0.478v-1.458
			c0-0.264-0.214-0.479-0.478-0.479l0,0c-0.264,0-0.479,0.215-0.479,0.479V36.305z"/>
	</g>
	<g>
		<path fill="#E74B7A" d="M7.762,36.305c0,0.263,0.214,0.478,0.478,0.478l0,0c0.265,0,0.479-0.214,0.479-0.478v-1.458
			c0-0.264-0.214-0.479-0.479-0.479l0,0c-0.264,0-0.478,0.215-0.478,0.479V36.305z"/>
	</g>
	<g>
		<path fill="#E74B7A" d="M14.21,39.007c0,0.264,0.215,0.479,0.479,0.479l0,0c0.264,0,0.478-0.215,0.478-0.479v-6.75
			c0-0.265-0.214-0.478-0.478-0.478l0,0c-0.264,0-0.479,0.213-0.479,0.478V39.007z"/>
	</g>
	<g>
		<path fill="#E74B7A" d="M12.889,39.447c0,0.225,0.214,0.406,0.478,0.406l0,0c0.264,0,0.478-0.182,0.478-0.406v-7.632
			c0-0.223-0.214-0.404-0.478-0.404l0,0c-0.264,0-0.478,0.181-0.478,0.404V39.447z"/>
	</g>
	<g>
		<path fill="#E74B7A" d="M11.595,37.882c0,0.264,0.214,0.478,0.479,0.478l0,0c0.264,0,0.478-0.214,0.478-0.478v-4.499
			c0-0.264-0.213-0.479-0.478-0.479l0,0c-0.264,0-0.479,0.215-0.479,0.479V37.882z"/>
	</g>
	<g>
		<path fill="#E74B7A" d="M10.292,38.557c0,0.265,0.213,0.478,0.478,0.478l0,0c0.264,0,0.479-0.213,0.479-0.478v-5.85
			c0-0.264-0.215-0.478-0.479-0.478l0,0c-0.265,0-0.478,0.214-0.478,0.478V38.557z"/>
	</g>
	<g>
		<path fill="#E74B7A" d="M8.998,37.882c0,0.264,0.214,0.478,0.479,0.478l0,0c0.264,0,0.478-0.214,0.478-0.478v-4.499
			c0-0.264-0.213-0.479-0.478-0.479l0,0c-0.264,0-0.479,0.215-0.479,0.479V37.882z"/>
	</g>
</g>
<g>
	<g>
		<path fill="#E74B7A" d="M30.062,16.329c0,0.216,0.175,0.391,0.39,0.391l0,0c0.215,0,0.39-0.175,0.39-0.391v-1.188
			c0-0.215-0.175-0.39-0.39-0.39l0,0c-0.215,0-0.39,0.175-0.39,0.39V16.329z"/>
	</g>
	<g>
		<path fill="#E74B7A" d="M29.008,18.533c0,0.215,0.174,0.39,0.39,0.39l0,0c0.215,0,0.389-0.175,0.389-0.39v-5.503
			c0-0.215-0.174-0.39-0.389-0.39l0,0c-0.215,0-0.39,0.175-0.39,0.39V18.533z"/>
	</g>
	<g>
		<path fill="#E74B7A" d="M27.931,19.451c0,0.214,0.174,0.39,0.39,0.39l0,0c0.215,0,0.389-0.175,0.389-0.39v-7.339
			c0-0.215-0.174-0.39-0.389-0.39l0,0c-0.215,0-0.39,0.175-0.39,0.39V19.451z"/>
	</g>
	<g>
		<path fill="#E74B7A" d="M26.876,17.614c0,0.216,0.174,0.39,0.39,0.39l0,0c0.215,0,0.39-0.174,0.39-0.39v-3.667
			c0-0.216-0.175-0.39-0.39-0.39l0,0c-0.215,0-0.39,0.174-0.39,0.39V17.614z"/>
	</g>
	<g>
		<path fill="#E74B7A" d="M25.813,18.165c0,0.215,0.175,0.39,0.39,0.39l0,0c0.215,0,0.39-0.174,0.39-0.39v-4.768
			c0-0.215-0.175-0.39-0.39-0.39l0,0c-0.215,0-0.39,0.175-0.39,0.39V18.165z"/>
	</g>
	<g>
		<path fill="#E74B7A" d="M24.758,17.614c0,0.216,0.174,0.39,0.39,0.39l0,0c0.215,0,0.39-0.174,0.39-0.39v-3.667
			c0-0.216-0.174-0.39-0.39-0.39l0,0c-0.216,0-0.39,0.174-0.39,0.39V17.614z"/>
	</g>
	<g>
		<path fill="#E74B7A" d="M23.681,16.329c0,0.216,0.174,0.391,0.39,0.391l0,0c0.215,0,0.39-0.175,0.39-0.391v-1.096
			c0-0.216-0.175-0.391-0.39-0.391l0,0c-0.216,0-0.39,0.175-0.39,0.391V16.329z"/>
	</g>
	<g>
		<path fill="#E74B7A" d="M22.626,15.779c0,0.216,0.175,0.39,0.39,0.39l0,0c0.215,0,0.39-0.174,0.39-0.39v0.004
			c0-0.216-0.174-0.39-0.39-0.39l0,0c-0.215,0-0.39,0.174-0.39,0.39V15.779z"/>
	</g>
</g>
<g>
	<g>
		<path fill="#9F86C0" d="M22.279,20.903c0,0.26,0.21,0.471,0.471,0.471l0,0c0.261,0,0.471-0.211,0.471-0.471v-1.548
			c0-0.261-0.21-0.471-0.471-0.471l0,0c-0.261,0-0.471,0.21-0.471,0.471V20.903z"/>
	</g>
	<g>
		<path fill="#9F86C0" d="M21.003,21.902c0,0.26,0.211,0.471,0.472,0.471l0,0c0.26,0,0.472-0.211,0.472-0.471v-3.546
			c0-0.26-0.211-0.471-0.472-0.471l0,0c-0.26,0-0.472,0.211-0.472,0.471V21.902z"/>
	</g>
	<g>
		<path fill="#9F86C0" d="M19.701,22.346c0,0.26,0.211,0.471,0.471,0.471l0,0c0.26,0,0.471-0.211,0.471-0.471v-4.435
			c0-0.26-0.211-0.47-0.471-0.47l0,0c-0.26,0-0.471,0.21-0.471,0.47V22.346z"/>
	</g>
	<g>
		<path fill="#9F86C0" d="M18.426,23.456c0,0.26,0.211,0.471,0.472,0.471l0,0c0.26,0,0.472-0.211,0.472-0.471v-6.654
			c0-0.26-0.211-0.471-0.472-0.471l0,0c-0.261,0-0.472,0.211-0.472,0.471V23.456z"/>
	</g>
	<g>
		<path fill="#9F86C0" d="M17.141,22.124c0,0.26,0.211,0.471,0.471,0.471l0,0c0.26,0,0.472-0.211,0.472-0.471v-3.99
			c0-0.26-0.212-0.472-0.472-0.472l0,0c-0.26,0-0.471,0.211-0.471,0.472V22.124z"/>
	</g>
	<g>
		<path fill="#9F86C0" d="M15.866,22.124c0,0.26,0.211,0.471,0.472,0.471l0,0c0.261,0,0.471-0.211,0.471-0.471v-3.99
			c0-0.26-0.21-0.472-0.471-0.472l0,0c-0.26,0-0.472,0.211-0.472,0.472V22.124z"/>
	</g>
	<g>
		<path fill="#9F86C0" d="M14.563,21.629c0,0.176,0.211,0.319,0.472,0.319l0,0c0.26,0,0.471-0.143,0.471-0.319v-3
			c0-0.176-0.211-0.319-0.471-0.319l0,0c-0.261,0-0.472,0.143-0.472,0.319V21.629z"/>
	</g>
	<g>
		<path fill="#9F86C0" d="M13.289,21.568c0,0.261,0.211,0.471,0.471,0.471l0,0c0.261,0,0.472-0.21,0.472-0.471V18.8
			c0-0.262-0.211-0.472-0.472-0.472l0,0c-0.26,0-0.471,0.21-0.471,0.472V21.568z"/>
	</g>
	<g>
		<path fill="#9F86C0" d="M11.966,20.792c0,0.26,0.211,0.471,0.471,0.471l0,0c0.261,0,0.472-0.21,0.472-0.471v-1.438
			c0-0.26-0.211-0.472-0.472-0.472l0,0c-0.26,0-0.471,0.211-0.471,0.472V20.792z"/>
	</g>
</g>
<g>
	<g>
		<path fill="#C9184A" d="M59.609,38.059c0,0.263,0.213,0.475,0.477,0.475l0,0c0.263,0,0.476-0.212,0.476-0.475v-6.725
			c0-0.263-0.213-0.477-0.476-0.477l0,0c-0.264,0-0.477,0.213-0.477,0.477V38.059z"/>
	</g>
	<g>
		<path fill="#C9184A" d="M58.292,39.18c0,0.263,0.215,0.477,0.477,0.477l0,0c0.264,0,0.477-0.214,0.477-0.477v-8.968
			c0-0.263-0.213-0.477-0.477-0.477l0,0c-0.262,0-0.477,0.214-0.477,0.477V39.18z"/>
	</g>
	<g>
		<path fill="#C9184A" d="M57.004,36.936c0,0.264,0.213,0.477,0.476,0.477l0,0c0.263,0,0.478-0.213,0.478-0.477v-4.48
			c0-0.263-0.215-0.477-0.478-0.477l0,0c-0.263,0-0.476,0.213-0.476,0.477V36.936z"/>
	</g>
	<g>
		<path fill="#C9184A" d="M55.705,37.608c0,0.265,0.213,0.477,0.476,0.477l0,0c0.264,0,0.478-0.212,0.478-0.477v-5.827
			c0-0.263-0.214-0.476-0.478-0.476l0,0c-0.263,0-0.476,0.212-0.476,0.476V37.608z"/>
	</g>
	<g>
		<path fill="#C9184A" d="M54.416,36.936c0,0.264,0.215,0.477,0.477,0.477l0,0c0.264,0,0.476-0.213,0.476-0.477v-4.48
			c0-0.263-0.212-0.477-0.476-0.477l0,0c-0.262,0-0.477,0.213-0.477,0.477V36.936z"/>
	</g>
	<g>
		<path fill="#C9184A" d="M62.214,36.936c0,0.264,0.214,0.477,0.479,0.477l0,0c0.263,0,0.475-0.213,0.475-0.477v-4.48
			c0-0.263-0.212-0.477-0.475-0.477l0,0c-0.265,0-0.479,0.213-0.479,0.477V36.936z"/>
	</g>
	<g>
		<path fill="#C9184A" d="M60.914,37.608c0,0.265,0.215,0.477,0.478,0.477l0,0c0.264,0,0.477-0.212,0.477-0.477v-5.827
			c0-0.263-0.213-0.476-0.477-0.476l0,0c-0.263,0-0.478,0.212-0.478,0.476V37.608z"/>
	</g>
	<g>
		<path fill="#C9184A" d="M59.627,36.936c0,0.264,0.213,0.477,0.477,0.477l0,0c0.264,0,0.476-0.213,0.476-0.477v-4.48
			c0-0.263-0.212-0.477-0.476-0.477l0,0c-0.264,0-0.477,0.213-0.477,0.477V36.936z"/>
	</g>
	<g>
		<path fill="#C9184A" d="M53.099,35.627c0,0.263,0.215,0.476,0.478,0.476l0,0c0.264,0,0.476-0.213,0.476-0.476v-1.863
			c0-0.263-0.212-0.476-0.476-0.476l0,0c-0.263,0-0.478,0.213-0.478,0.476V35.627z"/>
	</g>
	<g>
		<path fill="#C9184A" d="M63.525,35.627c0,0.263,0.214,0.476,0.477,0.476l0,0c0.263,0,0.476-0.213,0.476-0.476v-1.863
			c0-0.263-0.213-0.476-0.476-0.476l0,0c-0.263,0-0.477,0.213-0.477,0.476V35.627z"/>
	</g>
</g>
<g>
	<g>
		<path fill="#C9184A" d="M10.667,29.071c0,0.188,0.213,0.34,0.477,0.34l0,0c0.263,0,0.477-0.152,0.477-0.34v-4.804
			c0-0.188-0.213-0.34-0.477-0.34l0,0c-0.263,0-0.477,0.152-0.477,0.34V29.071z"/>
	</g>
	<g>
		<path fill="#C9184A" d="M9.35,29.718c0,0.179,0.213,0.323,0.477,0.323l0,0c0.263,0,0.475-0.144,0.475-0.323V23.62
			c0-0.18-0.212-0.325-0.475-0.325l0,0c-0.264,0-0.477,0.146-0.477,0.325V29.718z"/>
	</g>
	<g>
		<path fill="#C9184A" d="M8.062,28.524c0,0.218,0.214,0.394,0.477,0.394l0,0c0.263,0,0.476-0.176,0.476-0.394v-3.711
			c0-0.217-0.213-0.394-0.476-0.394l0,0c-0.263,0-0.477,0.177-0.477,0.394V28.524z"/>
	</g>
	<g>
		<g>
			<path fill="#C9184A" d="M13.279,28.965c0,0.263,0.213,0.476,0.477,0.476l0,0c0.263,0,0.476-0.213,0.476-0.476v-4.481
				c0-0.264-0.213-0.477-0.476-0.477l0,0c-0.264,0-0.477,0.213-0.477,0.477V28.965z"/>
		</g>
		<g>
			<path fill="#C9184A" d="M11.962,27.916c0,0.264,0.213,0.477,0.476,0.477l0,0c0.264,0,0.477-0.212,0.477-0.477v-2.384
				c0-0.263-0.213-0.477-0.477-0.477l0,0c-0.263,0-0.476,0.214-0.476,0.477V27.916z"/>
		</g>
		<g>
			<path fill="#C9184A" d="M15.473,23.755c0-0.264-0.213-0.476-0.477-0.476l0,0c-0.263,0-0.477,0.212-0.477,0.476v5.827
				c0,0.263,0.213,0.477,0.477,0.477l0,0c0.263,0,0.477-0.214,0.477-0.477V23.755z"/>
		</g>
		<g>
			<path fill="#C9184A" d="M16.761,24.427c0-0.262-0.213-0.475-0.476-0.475l0,0c-0.264,0-0.477,0.213-0.477,0.475v4.481
				c0,0.264,0.213,0.477,0.477,0.477l0,0c0.263,0,0.476-0.213,0.476-0.477V24.427z"/>
		</g>
		<g>
			<path fill="#C9184A" d="M18.078,25.999c0-0.263-0.213-0.477-0.477-0.477l0,0c-0.263,0-0.475,0.213-0.475,0.477v1.34
				c0,0.263,0.212,0.477,0.475,0.477l0,0c0.264,0,0.477-0.214,0.477-0.477V25.999z"/>
		</g>
		<g>
			<path fill="#C9184A" d="M19.366,26.671c0-0.263-0.213-0.476-0.476-0.476l0,0c-0.263,0-0.476,0.213-0.476,0.476v-0.005
				c0,0.264,0.213,0.477,0.476,0.477l0,0c0.263,0,0.476-0.213,0.476-0.477V26.671z"/>
		</g>
	</g>
</g>
<g>
	<g>
		<path fill="#E74B7A" d="M62.027,24.56c0,0.263,0.214,0.476,0.476,0.476l0,0c0.264,0,0.477-0.213,0.477-0.476v-1.453
			c0-0.263-0.213-0.476-0.477-0.476l0,0c-0.262,0-0.476,0.212-0.476,0.476V24.56z"/>
	</g>
	<g>
		<path fill="#E74B7A" d="M60.738,26.468c0,0.264,0.214,0.478,0.478,0.478l0,0c0.264,0,0.477-0.214,0.477-0.478v-4.897
			c0-0.263-0.213-0.477-0.477-0.477l0,0c-0.264,0-0.478,0.214-0.478,0.477V26.468z"/>
	</g>
	<g>
		<path fill="#E74B7A" d="M51.288,22.715c0-0.263-0.214-0.477-0.478-0.477l0,0c-0.264,0-0.476,0.213-0.476,0.477v2.237
			c0,0.263,0.212,0.477,0.476,0.477l0,0c0.264,0,0.478-0.213,0.478-0.477V22.715z"/>
	</g>
	<g>
		<path fill="#E74B7A" d="M52.576,22.041c0-0.263-0.213-0.476-0.477-0.476l0,0c-0.263,0-0.478,0.213-0.478,0.476v3.584
			c0,0.264,0.215,0.476,0.478,0.476l0,0c0.264,0,0.477-0.212,0.477-0.476V22.041z"/>
	</g>
	<g>
		<path fill="#E74B7A" d="M53.893,20.472c0-0.264-0.213-0.477-0.477-0.477l0,0c-0.263,0-0.477,0.213-0.477,0.477v6.724
			c0,0.263,0.214,0.476,0.477,0.476l0,0c0.264,0,0.477-0.213,0.477-0.476V20.472z"/>
	</g>
	<g>
		<path fill="#E74B7A" d="M56.48,19.574c0-0.263-0.214-0.476-0.477-0.476l0,0c-0.264,0-0.476,0.213-0.476,0.476v8.519
			c0,0.263,0.212,0.476,0.476,0.476l0,0c0.263,0,0.477-0.213,0.477-0.476V19.574z"/>
	</g>
	<g>
		<path fill="#E74B7A" d="M57.769,20.512c0-0.263-0.214-0.476-0.477-0.476l0,0c-0.263,0-0.477,0.213-0.477,0.476v6.642
			c0,0.263,0.214,0.476,0.477,0.476l0,0c0.263,0,0.477-0.213,0.477-0.476V20.512z"/>
	</g>
	<g>
		<path fill="#E74B7A" d="M59.085,20.288c0-0.264-0.214-0.476-0.476-0.476l0,0c-0.264,0-0.477,0.212-0.477,0.476v7.091
			c0,0.263,0.213,0.476,0.477,0.476l0,0c0.262,0,0.476-0.213,0.476-0.476V20.288z"/>
	</g>
	<g>
		<path fill="#E74B7A" d="M55.207,21.593c0-0.263-0.214-0.477-0.478-0.477l0,0c-0.263,0-0.477,0.213-0.477,0.477v4.481
			c0,0.263,0.214,0.477,0.477,0.477l0,0c0.264,0,0.478-0.213,0.478-0.477V21.593z"/>
	</g>
	<g>
		<path fill="#E74B7A" d="M60.375,20.552c0-0.264-0.214-0.476-0.478-0.476l0,0c-0.264,0-0.477,0.212-0.477,0.476v6.711
			c0,0.263,0.213,0.476,0.477,0.476l0,0c0.264,0,0.478-0.213,0.478-0.476V20.552z"/>
	</g>
</g>
<g>
	<g>
		<path fill="#9F86C0" d="M52.55,18.465c0,0.215,0.174,0.391,0.39,0.391l0,0c0.217,0,0.391-0.175,0.391-0.391v-1.096
			c0-0.216-0.174-0.39-0.391-0.39l0,0c-0.216,0-0.39,0.174-0.39,0.39V18.465z"/>
	</g>
	<g>
		<path fill="#9F86C0" d="M53.663,17.859c0,0.216,0.175,0.39,0.389,0.39l0,0c0.216,0,0.39-0.174,0.39-0.39v0.004
			c0-0.216-0.174-0.39-0.39-0.39l0,0c-0.214,0-0.389,0.174-0.389,0.39V17.859z"/>
	</g>
	<g>
		<g>
			<path fill="#9F86C0" d="M49.9,19.036c0,0.263,0.214,0.477,0.477,0.477l0,0c0.264,0,0.477-0.214,0.477-0.477v-2.237
				c0-0.263-0.213-0.476-0.477-0.476l0,0c-0.263,0-0.477,0.213-0.477,0.476V19.036z"/>
		</g>
		<g>
			<path fill="#9F86C0" d="M48.701,18.532c0,0.263,0.213,0.476,0.476,0.476l0,0c0.264,0,0.478-0.213,0.478-0.476v-1.341
				c0-0.263-0.214-0.477-0.478-0.477l0,0c-0.263,0-0.476,0.214-0.476,0.477V18.532z"/>
		</g>
		<g>
			<path fill="#9F86C0" d="M51.189,18.532c0,0.263,0.212,0.476,0.475,0.476l0,0c0.264,0,0.478-0.213,0.478-0.476v-1.341
				c0-0.263-0.214-0.477-0.478-0.477l0,0c-0.263,0-0.475,0.214-0.475,0.477V18.532z"/>
		</g>
		<g>
			<path fill="#9F86C0" d="M47.454,19.934c0,0.263,0.213,0.476,0.475,0.476l0,0c0.264,0,0.478-0.213,0.478-0.476V15.9
				c0-0.263-0.214-0.476-0.478-0.476l0,0c-0.262,0-0.475,0.213-0.475,0.476V19.934z"/>
		</g>
		<g>
			<path fill="#9F86C0" d="M46.137,20.158c0,0.263,0.213,0.476,0.476,0.476l0,0c0.264,0,0.477-0.213,0.477-0.476v-4.481
				c0-0.263-0.213-0.476-0.477-0.476l0,0c-0.263,0-0.476,0.213-0.476,0.476V20.158z"/>
		</g>
		<g>
			<path fill="#9F86C0" d="M44.849,19.373c0,0.263,0.211,0.477,0.475,0.477l0,0c0.264,0,0.478-0.213,0.478-0.477v-2.798
				c0-0.263-0.214-0.477-0.478-0.477l0,0c-0.264,0-0.475,0.213-0.475,0.477V19.373z"/>
		</g>
		<g>
			<path fill="#9F86C0" d="M43.513,18.587c0,0.263,0.213,0.477,0.476,0.477l0,0c0.263,0,0.476-0.213,0.476-0.477v-1.453
				c0-0.263-0.213-0.477-0.476-0.477l0,0c-0.263,0-0.476,0.213-0.476,0.477V18.587z"/>
		</g>
	</g>
</g>
<g>
	<g>
		<path fill="#C9184A" d="M41.889,14.229c0,0.263,0.212,0.476,0.476,0.476l0,0c0.262,0,0.476-0.213,0.476-0.476v-1.453
			c0-0.263-0.214-0.477-0.476-0.477l0,0c-0.264,0-0.476,0.213-0.476,0.477V14.229z"/>
	</g>
	<g>
		<path fill="#C9184A" d="M44.464,14.284c0,0.263,0.214,0.477,0.478,0.477l0,0c0.262,0,0.475-0.213,0.475-0.477v-1.453
			c0-0.263-0.213-0.476-0.475-0.476l0,0c-0.264,0-0.478,0.213-0.478,0.476V14.284z"/>
	</g>
	<g>
		<path fill="#C9184A" d="M39.295,16.92c0,0.263,0.214,0.476,0.478,0.476l0,0c0.263,0,0.476-0.213,0.476-0.476v-6.725
			c0-0.263-0.213-0.476-0.476-0.476l0,0c-0.264,0-0.478,0.213-0.478,0.476V16.92z"/>
	</g>
	<g>
		<path fill="#C9184A" d="M37.993,15.798c0,0.263,0.214,0.477,0.478,0.477l0,0c0.264,0,0.477-0.214,0.477-0.477v-4.481
			c0-0.263-0.213-0.476-0.477-0.476l0,0c-0.264,0-0.478,0.213-0.478,0.476V15.798z"/>
	</g>
	<g>
		<path fill="#C9184A" d="M36.695,15.35c0,0.263,0.214,0.477,0.477,0.477l0,0c0.264,0,0.477-0.214,0.477-0.477v-3.583
			c0-0.263-0.213-0.478-0.477-0.478l0,0c-0.263,0-0.477,0.214-0.477,0.478V15.35z"/>
	</g>
	<g>
		<path fill="#C9184A" d="M35.407,14.677c0,0.263,0.213,0.477,0.477,0.477l0,0c0.263,0,0.476-0.214,0.476-0.477v-2.238
			c0-0.263-0.212-0.476-0.476-0.476l0,0c-0.263,0-0.477,0.213-0.477,0.476V14.677z"/>
	</g>
	<g>
		<path fill="#C9184A" d="M43.159,14.621c0,0.263,0.213,0.477,0.477,0.477l0,0c0.263,0,0.477-0.214,0.477-0.477v-2.238
			c0-0.263-0.214-0.477-0.477-0.477l0,0c-0.264,0-0.477,0.214-0.477,0.477V14.621z"/>
	</g>
	<g>
		<path fill="#C9184A" d="M40.606,14.677c0,0.263,0.213,0.477,0.476,0.477l0,0c0.263,0,0.477-0.214,0.477-0.477v-2.238
			c0-0.263-0.214-0.476-0.477-0.476l0,0c-0.263,0-0.476,0.213-0.476,0.476V14.677z"/>
	</g>
	<g>
		<path fill="#C9184A" d="M34.09,14.229c0,0.263,0.213,0.476,0.477,0.476l0,0c0.264,0,0.476-0.213,0.476-0.476v-1.341
			c0-0.263-0.212-0.477-0.476-0.477l0,0c-0.263,0-0.477,0.214-0.477,0.477V14.229z"/>
	</g>
</g>
<g>
	<polygon fill="#FFFFFF" points="37.505,69.45 33.132,63.9 33.132,52.318 33.393,52.318 33.393,63.811 37.709,69.287 	"/>
</g>
<g>
	<polygon fill="#FFFFFF" points="38.08,68.245 34.183,63.4 34.183,52.945 34.444,52.945 34.444,63.311 38.283,68.083 	"/>
</g>
<g>
	<polygon fill="#FFFFFF" points="38.635,66.965 35.304,62.858 35.304,53.316 35.564,53.316 35.564,62.766 38.838,66.8 	"/>
</g>
<g>
	<g>
		<polygon fill="#FFFFFF" points="69.886,2.076 2.465,2.076 2.465,69.496 35.444,69.496 35.444,69.235 2.727,69.235 2.727,2.336 
			69.626,2.336 69.626,69.235 37.596,69.235 37.596,69.496 69.886,69.496 		"/>
	</g>
	<g>
		<polygon fill="#FFFFFF" points="68.841,3.036 3.597,3.036 3.597,68.281 34.662,68.281 34.401,68.021 3.857,68.021 3.857,3.297 
			68.58,3.297 68.58,68.021 38.117,68.021 38.117,68.281 68.841,68.281 		"/>
	</g>
	<g>
		<polygon fill="#FFFFFF" points="67.712,4.166 4.81,4.166 4.81,67.068 33.879,67.068 33.879,66.808 5.069,66.808 5.069,4.426 
			67.449,4.426 67.449,66.808 38.639,66.808 38.715,67.077 67.712,67.068 		"/>
	</g>
</g>
<g>
	<circle fill="#FFFFFF" cx="33.688" cy="66.943" r="0.481"/>
</g>
<g>
	<circle cx="33.689" cy="66.943" r="0.248"/>
</g>
<g>
	<circle fill="#FFFFFF" cx="34.609" cy="68.126" r="0.482"/>
</g>
<g>
	<circle cx="34.609" cy="68.125" r="0.248"/>
</g>
<g>
	<circle fill="#FFFFFF" cx="35.472" cy="69.225" r="0.481"/>
</g>
<g>
	<circle cx="35.472" cy="69.225" r="0.248"/>
</g>
</svg>
