<svg width="48" height="48" viewBox="0 0 48 48" fill="none" xmlns="http://www.w3.org/2000/svg">
<g clip-path="url(#clip0_379_18430)">
<path d="M24 47.689C37.2548 47.689 48 37.1677 48 24.189C48 11.2103 37.2548 0.688965 24 0.688965C10.7452 0.688965 0 11.2103 0 24.189C0 37.1677 10.7452 47.689 24 47.689Z" fill="black"/>
<path d="M34.9123 16.1752C34.9123 16.1752 31.7904 13.7793 28.0967 13.5039L27.7685 14.1557C31.106 14.9543 32.6342 16.1018 34.2373 17.5062C31.481 16.1293 28.7529 14.835 24.0092 14.835C19.2654 14.835 16.5373 16.1293 13.7811 17.5062C15.3842 16.1018 17.2029 14.8258 20.2498 14.1557L19.9217 13.5039C16.0498 13.8619 13.1061 16.1752 13.1061 16.1752C13.1061 16.1752 9.61855 21.1322 9.01855 30.8627C12.5342 34.8375 17.8779 34.865 17.8779 34.865L18.9936 33.4055C17.0998 32.7629 14.9529 31.6063 13.1061 29.5225C15.3092 31.1564 18.6467 32.8639 24.0186 32.8639C29.3904 32.8639 32.7185 31.1656 34.931 29.5225C33.0842 31.6063 30.9373 32.7629 29.0435 33.4055L30.1592 34.865C30.1592 34.865 35.5029 34.8375 39.0185 30.8627C38.3998 21.1322 34.9123 16.1752 34.9123 16.1752ZM19.5654 28.1914C18.2436 28.1914 17.1748 26.998 17.1748 25.5201C17.1748 24.0422 18.2436 22.8488 19.5654 22.8488C20.8873 22.8488 21.956 24.0422 21.956 25.5201C21.956 26.998 20.8873 28.1914 19.5654 28.1914ZM28.4342 28.1914C27.1123 28.1914 26.0435 26.998 26.0435 25.5201C26.0435 24.0422 27.1123 22.8488 28.4342 22.8488C29.756 22.8488 30.8248 24.0422 30.8248 25.5201C30.8248 26.998 29.7467 28.1914 28.4342 28.1914Z" fill="white"/>
</g>
<defs>
<clipPath id="clip0_379_18430">
<rect width="48" height="47" fill="white" transform="translate(0 0.688965)"/>
</clipPath>
</defs>
</svg>
