<svg width="48" height="48" viewBox="0 0 48 48" fill="none" xmlns="http://www.w3.org/2000/svg">
<g clip-path="url(#clip0_379_18424)">
<path d="M23.9999 1.23731C18.2863 1.23564 12.7595 3.22995 8.41333 6.86161C4.06718 10.4933 1.1868 15.524 0.290124 21.0493C-0.606553 26.5745 0.539305 32.2317 3.52165 37.0037C6.504 41.7756 11.1272 45.3492 16.5599 47.0819H17.1399C17.4228 47.0991 17.7063 47.0572 17.9715 46.9589C18.2366 46.8607 18.4774 46.7084 18.6779 46.5121C18.8784 46.3158 19.0339 46.08 19.1343 45.8203C19.2346 45.5607 19.2774 45.2831 19.2599 45.0061V44.5948C19.2599 44.2619 19.2599 43.8115 19.2599 42.4602C19.2402 42.3319 19.1948 42.2087 19.1261 42.0978C19.0574 41.9869 18.9669 41.8904 18.8599 41.814C18.7437 41.722 18.6079 41.6566 18.4626 41.6227C18.3172 41.5888 18.1659 41.5873 18.0199 41.6181C12.6599 42.754 11.5199 39.464 11.4399 39.2486C10.7687 37.5078 9.56792 36.0108 7.99986 34.9598C7.90591 34.8803 7.80559 34.8082 7.69986 34.7444C7.93228 34.6219 8.19812 34.5739 8.45986 34.6073C8.96254 34.6757 9.43856 34.8704 9.84161 35.1724C10.2447 35.4744 10.561 35.8734 10.7599 36.3306C11.5336 37.6497 12.7996 38.6236 14.2917 39.0473C15.7837 39.4709 17.3855 39.3114 18.7599 38.6023C18.9073 38.5392 19.0371 38.4421 19.1381 38.3194C19.239 38.1966 19.3083 38.0518 19.3399 37.8973C19.4164 36.9915 19.8124 36.1399 20.4599 35.4886C20.6036 35.3636 20.7075 35.2007 20.7591 35.0193C20.8107 34.838 20.8079 34.646 20.7509 34.4662C20.6939 34.2864 20.5852 34.1265 20.4378 34.0057C20.2905 33.8848 20.1106 33.8081 19.9199 33.7848C15.1799 33.2561 10.3399 31.6306 10.3399 23.6211C10.2999 21.6096 11.0518 19.6602 12.4399 18.1769C12.5677 18.0386 12.6526 17.8675 12.6844 17.6836C12.7163 17.4998 12.6939 17.3108 12.6199 17.139C12.064 15.6184 12.0711 13.955 12.6399 12.439C14.4875 12.7597 16.2217 13.5346 17.6799 14.6911C17.8003 14.7743 17.9384 14.8299 18.0839 14.8536C18.2293 14.8773 18.3783 14.8686 18.5199 14.8281C20.3064 14.3536 22.1487 14.11 23.9999 14.1036C25.8579 14.1051 27.7075 14.3488 29.4999 14.8281C29.6384 14.8656 29.7837 14.8727 29.9255 14.849C30.0672 14.8253 30.2018 14.7714 30.3199 14.6911C31.7803 13.5382 33.5135 12.7638 35.3599 12.439C35.9043 13.9468 35.9043 15.5919 35.3599 17.0998C35.2858 17.2716 35.2634 17.4606 35.2953 17.6445C35.3272 17.8283 35.412 17.9995 35.5399 18.1377C36.9135 19.6062 37.6644 21.5319 37.6399 23.5231C37.6399 31.5327 32.7799 33.1386 28.0199 33.6673C27.8246 33.6872 27.6397 33.7629 27.4881 33.8851C27.3365 34.0072 27.225 34.1702 27.1674 34.354C27.1099 34.5377 27.1088 34.734 27.1643 34.9184C27.2199 35.1027 27.3296 35.2669 27.4799 35.3906C27.9229 35.8384 28.2614 36.3749 28.472 36.9632C28.6827 37.5515 28.7604 38.1776 28.6999 38.7981V45.0256C28.69 45.3318 28.7494 45.6363 28.8739 45.9173C28.9983 46.1984 29.1848 46.4489 29.4199 46.6511C29.7192 46.8705 30.0668 47.0184 30.4348 47.083C30.8029 47.1476 31.1813 47.1271 31.5399 47.0231C36.9361 45.2555 41.5153 41.668 44.4606 36.9008C47.4058 32.1335 48.5254 26.4967 47.6195 20.9962C46.7137 15.4956 43.8414 10.4891 39.5151 6.86995C35.1888 3.25083 29.69 1.25455 23.9999 1.23731V1.23731Z" fill="black"/>
</g>
<defs>
<clipPath id="clip0_379_18424">
<rect width="48" height="47" fill="white" transform="translate(0 0.688965)"/>
</clipPath>
</defs>
</svg>
