<svg width="47" height="48" viewBox="0 0 47 48" fill="none" xmlns="http://www.w3.org/2000/svg">
<g clip-path="url(#clip0_379_18428)">
<path fill-rule="evenodd" clip-rule="evenodd" d="M23.5 0.688965C36.47 0.688965 47 11.219 47 24.189C47 37.1589 36.47 47.689 23.5 47.689C10.53 47.689 0 37.1589 0 24.189C0 11.219 10.53 0.688965 23.5 0.688965ZM19.3608 36.6878C29.7598 36.6878 35.4458 28.0709 35.4458 20.6029C35.4458 20.3567 35.4458 20.1105 35.4341 19.876C36.5361 19.0788 37.4975 18.0823 38.2595 16.9451C37.2513 17.3906 36.1609 17.6954 35.012 17.8361C36.1844 17.1326 37.0754 16.0306 37.4975 14.7059C36.4071 15.3507 35.1996 15.8196 33.9099 16.0775C32.8782 14.9755 31.4128 14.2956 29.7832 14.2956C26.6647 14.2956 24.1324 16.8279 24.1324 19.9464C24.1324 20.3919 24.1793 20.8256 24.2848 21.236C19.5836 21.0015 15.4216 18.7506 12.6314 15.3272C12.1507 16.1596 11.8693 17.1326 11.8693 18.1643C11.8693 20.1222 12.8659 21.8573 14.39 22.8655C13.4638 22.8421 12.5962 22.5842 11.8342 22.1622V22.2325C11.8342 24.9758 13.7803 27.2502 16.3712 27.7779C15.9023 27.9067 15.3982 27.9771 14.8824 27.9771C14.5189 27.9771 14.1672 27.942 13.8155 27.8716C14.5306 30.1225 16.6174 31.7522 19.0912 31.799C17.1567 33.3115 14.7183 34.2142 12.0686 34.2142C11.6114 34.2142 11.1659 34.1907 10.7204 34.1321C13.1941 35.75 16.1719 36.6878 19.3608 36.6878V36.6878Z" fill="black"/>
</g>
<defs>
<clipPath id="clip0_379_18428">
<rect width="47" height="47" fill="white" transform="translate(0 0.688965)"/>
</clipPath>
</defs>
</svg>
